<svg width="445" height="345" viewBox="0 0 445 345" fill="none" xmlns="http://www.w3.org/2000/svg"><rect width="445" height="345" rx="10" fill="#17ECD7"/><path d="M372.672 336.322H73.306a4.333 4.333 0 0 0-4.326 4.339A4.333 4.333 0 0 0 73.306 345h299.366a4.333 4.333 0 0 0 4.327-4.339 4.333 4.333 0 0 0-4.327-4.339z" fill="#799390"/><path d="M306.896 256.03h-9.928a2.911 2.911 0 0 0-2.907 2.916v2.415a2.911 2.911 0 0 0 2.907 2.916h9.928a2.912 2.912 0 0 0 2.908-2.916v-2.415a2.912 2.912 0 0 0-2.908-2.916z" fill="#D6332B"/><path d="M222.396 282.877H206.05c-9.439 0-17.088 13.116-17.088 29.291a49.48 49.48 0 0 0 .376 6.144c1.612 12.893 8.183 22.666 16.128 23.123h16.93c8.208 0 15.066-9.918 16.712-23.148a49.48 49.48 0 0 0 .376-6.144c0-16.15-7.649-29.266-17.088-29.266z" fill="#2C2933"/><path d="M351.263 282.877h-16.346c-9.439 0-17.088 13.111-17.088 29.291a49.674 49.674 0 0 0 .376 6.144c1.612 12.893 8.183 22.666 16.128 23.123h16.93c8.208 0 15.066-9.918 16.712-23.143.252-2.038.378-4.09.376-6.144.01-16.16-7.649-29.271-17.088-29.271z" fill="#3A3842"/><path d="M122.242 251.389H88.066l-8.87-3.174h57.671l-14.625 3.174z" fill="#4B4554"/><path d="M168.996 276.252h-83.69c-1.188 0-2.15.966-2.15 2.157v35.812c0 1.191.962 2.157 2.15 2.157h83.69a2.154 2.154 0 0 0 2.151-2.157v-35.812a2.154 2.154 0 0 0-2.151-2.157z" fill="#433144"/><path d="M170.771 233.116c-13.35 0-14.221-2.207-22.176.739-12.49 4.611-40.807 25.81-40.807 25.81l-9.325 14.797 94.864-3.858-22.556-37.488z" fill="#F9543E"/><path d="M145.307 235.555c20.628-12.838 97.866-9.699 114.034-2.41 13.068 3.61 49.939 36.482 49.939 36.482l-161.683-6.179c.027-1.381.142-2.759.346-4.125-8.45-4.062-18.661-13.81-2.636-23.768z" fill="#F9543E"/><path d="M163.418 233.741a91.47 91.47 0 0 1 10.824-.595h81.613c11.323 0 52.544 36.481 52.544 36.481l-169.812-3.833c-27.07-.074.238-27.596 24.831-32.053z" fill="#7AB1AD"/><path opacity=".4" d="M250.342 233.145h5.513c11.323 0 52.544 36.482 52.544 36.482l-3.396-.079c-4.159-2.341-8.356-4.319-8.356-4.319-3.442-3.715-33.014-32.084-46.305-32.084z" fill="#8C4C57"/><path d="M163.418 233.741a91.47 91.47 0 0 1 10.824-.595h77.01a91.554 91.554 0 0 0-10.829.595c-24.593 4.462-51.916 31.979-24.826 32.053l91.24 2.479 1.562 1.364-169.812-3.843c-27.07-.074.238-27.596 24.831-32.053z" fill="#8C4C57" style="mix-blend-mode:multiply" opacity=".4"/><path d="M206.891 240.058s8.46 19.339 8.46 22.532" stroke="#647F7F" stroke-width="5.88" stroke-miterlimit="10" stroke-linecap="square"/><path style="mix-blend-mode:screen" d="M300.271 263.919a24.38 24.38 0 0 1-1.053-.604c-7.476-4.463-28.09-14.877-57.994-14.877-1.636 0-3.303.03-4.944.095l-.752.024c-10.175.387-17.533.67-23.288.67-11.867 0-16.055-1.151-19.456-5.336-1.4-1.721-1.291-3.104-1.138-5.018a13.122 13.122 0 0 0-.242-4.731h64.451c5.745-.034 22.235 11.058 44.416 29.777z" fill="url(#a)"/><path d="M163.418 233.741a91.458 91.458 0 0 1 10.824-.595h10.037a7.26 7.26 0 0 1 3.115 3.838c2.22 5.677 5.478 26.112 8.405 29.256v.838l-23.733-.53-36.693-2.395s-4.187-.367-7.471-2.078c-4.094-7.686 16.52-24.893 35.516-28.334z" fill="#2C2933" style="mix-blend-mode:multiply" opacity=".3"/><path opacity=".7" d="M146.355 240.058h48.07c11.021 0 2.808 5.817 2.808 5.817l-9.147 9.198s-2.67 2.341-8.138 2.341h-50.28c.618-5.579 6.413-11.688 16.687-17.356z" fill="#7AB1AD"/><path style="mix-blend-mode:screen" opacity=".8" d="M189.372 253.982c-2.843-2.212-8.826-3.749-15.412-3.749h-3.862c-3.031 0-6.205 0-9.28-.049-2.992-.025-6.092-.045-8.97-.045-10.066 0-15.431.298-18.037 1.106a2.07 2.07 0 0 0-.153-.6c6.161-6.303 17.854-13.776 29.938-15.962a87.753 87.753 0 0 1 9.83-.576c7.664.06 11.338 3.164 13.553 11.445.548 2.048 1.181 4.24 1.849 6.561.173.61.356 1.229.544 1.869z" fill="url(#b)"/><path d="M257.21 234.96c1.8 0 6.823 1.443 20.272 11.108 7.911 5.668 15.259 10.508 21.4 15.62-2.309.243-48.614.327-63.823-.164-9.652-.307-21.825-.55-21.825-.55l-8.608-.317c-4.159 0-5.963-6.08-8.139-12.427a75.013 75.013 0 0 0-.989-2.797c-.746-2.077-2.126-5.95-.944-8.142.064-.129.816-1.274 5.829-1.899a75.931 75.931 0 0 1 8.792-.427h48.035v-.005zm-1.355-1.815h-48.188c-3.462.03-15.116-.153-16.955 3.283-1.523 2.832-.153 6.858.831 9.62 2.714 7.592 5.547 18.243 11.723 18.243h.025l10.878 1.676c9.246 0 46.097-.163 69.034-.163 12.044 0 20.272-.456 18.601-1.85-12.564-10.562-37.776-30.809-45.984-30.809h.035z" fill="#4E4C59"/><path d="M214.183 264.153c10.413 1.274 29.375-.496 54.201.366 38.73 1.364 16.287-.674 42.947-.674 26.661 0 52.52 8.346 58.048 18.06l3.239 7.83c1.053 2.925.365 7.532.365 10.84l-6.15 14.157c0 3.302.771 5.36-1.627 5.36 0 0 1.231 1.027-1.849 1.027-3.081 0-3.837-.303-3.837-6.477v-.495-.248c0-18.179-8.747-32.966-19.501-32.966-10.754 0-19.506 14.787-19.506 32.966v.743c0 5.083-.494 6.472-3.461 6.472h-89.84c-5.098 0-4.732-1.642-4.732-4.508 0-.883.034-1.716.034-2.415 0-11.216-3.293-21.149-8.331-27.194v-22.844z" fill="#D6332B"/><path d="M338.749 280.665H119.127a1.971 1.971 0 0 0-1.968 1.974v43.429a1.97 1.97 0 0 0 1.968 1.973h219.622a1.97 1.97 0 0 0 1.968-1.973v-43.429c0-1.09-.881-1.974-1.968-1.974z" fill="#433144"/><path d="M104.57 341.454h16.93c8.208 0 15.065-9.917 16.712-23.142.252-2.038.378-4.09.376-6.144 0-16.18-7.649-29.291-17.088-29.291h-16.347l-1.513 30.104.93 28.473zM232.612 341.454h16.93c8.207 0 15.06-9.917 16.712-23.142a49.87 49.87 0 0 0 .376-6.144c0-16.18-7.654-29.291-17.088-29.291H233.19l-1.508 30.104.93 28.473zM327.184 320.092a27.9 27.9 0 0 1-.208-3.382c0-8.925 4.213-16.135 9.395-16.135l-9.187 19.517zM336.385 300.555c5.202 0 9.394 7.225 9.394 16.136 0 1.13-.069 2.259-.207 3.381l-9.187-19.517z" fill="#2C2933"/><path d="M259.538 280.402h1.978v41.694H361.74c1.592 0 6.809-2.703 6.809-6.006l5.438-13.696c0-3.307-.321-8.375-1.374-11.301l-3.827-9.942c-.45-1.249-8.861-2.4-9.474-3.357h-99.774v2.608z" fill="#EF553C"/><path d="M231.281 264.812c27.165 5.118 42.849 14.876 42.849 14.876 4.45.868 19.956 9.541 19.956 9.541l52.717-.684 7.778-2.48c-27.338-21.233-54.883-21.233-74.365-21.233l-48.935-.02z" fill="#EF553C"/><path d="M345.8 276.688c-.638.561-4.915.387-4.915.387s1.78.927 3.392 1.929c3.224 1.983 5.992 7.041-3.56 7.041-9.553 0 7.09 4.191 7.09 4.191l4.717.104s12.44-10.414 11.422-11.004c-1.019-.59-9.701-4.572-9.365-4.874 3.718-3.342-8.781 2.226-8.781 2.226z" fill="#D6332B"/><path d="M294.194 289.229s-25.498-25.076-80.006-25.076l-86.162 1.115 90.484 8.286 61.153 15.675h14.531z" fill="#F9543E"/><path d="M101.005 259.209c-12.81 0-18.052 1.587-18.052 20.489v22.974h4.356c2.784-12.724 10.028-21.818 18.512-21.818 10.878 0 19.724 14.96 19.724 33.342 0 .699-.04 1.533-.04 2.415 0 2.866-.366 4.508 4.737 4.508h80.802c2.927 0 3.461-1.389 3.461-6.471v-.754c0-18.179 8.747-32.966 19.501-32.966 10.754 0 21.315 14.787 21.315 32.966 0 .084 2.715.163 2.715.248 0 .168-2.715.332-2.715.496 0 6.173 7.551 1.929 10.631 1.929s-5.874 4.552-5.874 4.552c2.398 0 7.417-3.085 7.417-6.387l-1.8-13.681c0-3.308-3.145-15.417-8.168-15.868l14.882 1.715c-5.532-9.714-40.45-18.516-67.11-18.516-26.661 0-22.354-.684-61.064-2.043-38.71-1.358-36.011-7.125-36.011-7.125l-7.219-.005z" fill="#D6332B"/><path d="M98.043 259.248c-6.472.204-10.645 1.3-12.924 6.01 2.16-4.314 18.022-3.436 19.921-2.836l-2.967-1.671-4.03-1.503z" fill="#2C2933" style="mix-blend-mode:multiply" opacity=".2"/><path d="M106.474 276.252h9.785l3.935 2.484-1.621 2.028-9.593-.877-2.506-3.635z" fill="#2C2933"/><path d="M105.812 280.849c8.148 0 15.159 8.4 18.161 20.33 1.518-2.295 5.933-2.558 6.714-.228 1.177 3.556 1.572-2.648 1.572-2.648s.94-15.833-19.421-21.352-27.16 18.085-27.16 25.701H87.3c2.793-12.704 10.037-21.803 18.512-21.803z" fill="url(#c)"/><path d="M218.485 288.47c-21.261-2.132-96.965-7.438-97.658-7.438 0 0 5.054-2.861 10.245 9.149 5.192 12.01.885 21.015 10.517 25.984 9.632 4.969 66.79 3.967 66.79 3.967l3.762-2.479 2.042-17.098 1.924-5.901 4.504-5.222s2.383-.51-2.126-.962z" fill="#8C4C57" style="mix-blend-mode:multiply" opacity=".3"/><path d="M215.721 287.93c4.663-7.885 11.15-12.229 18.265-12.229 7.001 0 13.933 4.369 19.016 11.986 4.841 7.249 7.506 16.557 7.506 26.207h-5.207c0-18.179-10.561-32.966-21.315-32.966-10.754 0-19.501 14.787-19.501 32.966h-5.212c0-9.714 2.29-18.938 6.448-25.964z" fill="#F9543E"/><path d="M199.35 277.943h-4.277a1.97 1.97 0 0 0-1.968 1.973v2.043c0 1.09.881 1.974 1.968 1.974h4.277a1.971 1.971 0 0 0 1.968-1.974v-2.043a1.97 1.97 0 0 0-1.968-1.973z" fill="#F97830"/><path d="M145.045 273.073c-.371 1.399-2.418 2.41-4.544 2.247l-4.104-.318c-2.126-.163-3.56-1.438-3.184-2.836.376-1.399 2.418-2.405 4.544-2.242l4.104.313c2.126.164 3.56 1.443 3.184 2.836z" fill="#2C2933"/><path d="M233.19 282.877c9.439 0 17.093 13.111 17.093 29.291 0 2.054-.127 4.106-.381 6.144-1.646 13.225-8.499 23.142-16.712 23.142s-15.061-9.917-16.707-23.142a49.674 49.674 0 0 1-.376-6.144c0-16.18 7.649-29.291 17.083-29.291z" fill="#4B4554"/><path d="M232.992 290.94c6.838 0 12.361 9.506 12.361 21.228a35.23 35.23 0 0 1-.277 4.463c-1.191 9.58-6.161 16.77-12.109 16.77s-10.917-7.19-12.109-16.775a36.385 36.385 0 0 1-.272-4.463c0-11.727 5.543-21.228 12.361-21.228l.045.005z" fill="#8C98A4" stroke="#DFE7E8" stroke-width="4.9" stroke-miterlimit="10"/><path d="M105.153 282.877c9.439 0 17.088 13.111 17.088 29.291a49.674 49.674 0 0 1-.376 6.144c-1.646 13.225-8.504 23.142-16.712 23.142s-15.06-9.917-16.707-23.142a49.698 49.698 0 0 1-.381-6.144c0-16.18 7.654-29.291 17.088-29.291z" fill="#4B4554"/><path d="M255.301 332.385v-18.491l118.657-11.49-4.074 29.981H255.301z" fill="#EF553C"/><path d="M371.105 332.405h-8.347l-30.986 5.836-8.406-5.836H279.37v-3.982h91.735v3.982z" fill="#3A3842"/><path d="M365.636 301.913c.658-2.41-.84-4.383-3.332-4.383h-81.089c-2.472 0-3.956 1.983-3.283 4.369l4.544 15.897a6.383 6.383 0 0 0 5.785 4.369h67.333a6.271 6.271 0 0 0 5.721-4.384l4.321-15.868z" fill="#2C2933" stroke="#C82E27" stroke-width="1.96" stroke-miterlimit="10"/><path d="M290.842 290.325c-7.526-3.605-29.593-16.895-36.203-12.948-6.611 3.948 1.512 11.163 9.943 12.551 8.43 1.388 26.26.397 26.26.397z" fill="#EADCDA"/><path opacity=".2" d="M192.779 264.425s-2.497 1.547-3.556 3.67c-1.058 2.122-3.327 10.765-4.005 17.688v31.691" stroke="#37333F" stroke-width="1.96" stroke-miterlimit="10" stroke-linecap="square"/><path d="M116.017 276.257c13.078 0 23.768 17.603 24.227 39.526-6.665-1.279-7.382-4.373-8.331-7.969-.237-1.72-.905-5.028-.905-5.033-.45-2.677-.88-4.368-1.562-5.633-3.461-10.324-9.469-17.886-16.584-20.172 1.454-.471 1.607-.719 3.155-.719z" fill="#2C2933"/><path d="M376.346 328.225a2.445 2.445 0 0 0-.713-1.716 2.426 2.426 0 0 0-1.71-.714H265.976a2.426 2.426 0 0 0-1.71.714 2.445 2.445 0 0 0-.713 1.716v1.73c.003.644.259 1.26.713 1.715a2.427 2.427 0 0 0 1.71.715h27.511a8.629 8.629 0 0 0 4.371-1.443l.405-.298a8.629 8.629 0 0 1 4.371-1.443h54.547c1.33 0 2.893.719 3.461 1.592.569.873 2.141 1.592 3.461 1.592h9.795a2.429 2.429 0 0 0 1.711-.715 2.446 2.446 0 0 0 .712-1.715l.025-1.73z" fill="#EF553C"/><path d="M183.409 264.549c-9.647-.134-61.168 1.701-54.498-9.421 4.45-7.439-6.67 6.183-6.67 6.183l5.78 3.848 6.091.684 45.242 1.954 2.448-1.949 1.607-1.299zM173.189 230.398a108.65 108.65 0 0 0 4.395-.436c.336-1.319 1.78-2.41 3.313-1.527.55.33 1.094.661 1.632.991 2.754-.257 4.944-.307 5.622.298.351.307.524 1.021.593 1.924 3.07-2.856 7.797-3.471 11.866-3.511 2.903-.035 10.023 4.979 7.056 5.008-3.461.03-15.115-.153-16.954 3.283-1.523 2.832-.154 6.858.83 9.62 2.72 7.597 5.558 18.268 11.748 18.243 2.927 0-9.167 3.724-9.889.908-2.145-8.48-4.089-14.549-5.518-19.89-2.496-9.347-7.026-12.164-14.724-12.164-11.446 0-6.087-2.29.03-2.747z" fill="#F9543E"/><path d="M107.077 262.422c-5.864-3.203-10.027-5.951-12.465-9.516l-6.882-1.522 6.808 8.509c1.42.049 2.835.201 4.233.456 2.126.318 6.269 2.058 6.269 2.058l2.037.015z" fill="#EF553C"/><path d="M133.04 311.276c6.176 7.626 25.677 6.139 34.71 6.139h36.015c4.075 0 5.439-.229 5.509-3.501l5.226-1.255v2.003c0 5.083-.495 6.472-3.461 6.472h-80.797c-5.103 0-4.737-1.642-4.737-4.508 0-.883.039-1.716.039-2.415 3.679-4.14 7.496-2.935 7.496-2.935z" fill="#F9543E"/><path d="M347.975 290.325h-52.604l-8.9-7.002h60.752l.752 7.002z" fill="#2C2933"/><path d="M105.039 262.422c-5.864-3.203-10.027-5.951-12.465-9.516l-6.887-1.522 6.813 8.509c1.42.049 2.835.201 4.233.456a52.766 52.766 0 0 1 8.306 2.073z" fill="#D6332B"/><path d="M75.507 250.759a6.2 6.2 0 0 0 2.132 3.107 6.17 6.17 0 0 0 3.534 1.291h8.406c2.943-.127 5.819-.93 8.405-2.345l3.11-1.875c2.136-1.289 1.864-2.652-.598-3.029l-22.3-3.422a4 4 0 0 0-1.048-.035h-2.59v2.44l3.282 1.324-2.333 2.544z" fill="#EF553C"/><path d="M97.282 247.858c2.636.407 2.922 1.865.638 3.243l-2.566 1.547a20.599 20.599 0 0 1-8.999 2.509h-7.738a6.609 6.609 0 0 1-3.783-1.372 6.64 6.64 0 0 1-2.294-3.314l-.494-1.948c-.673-2.589.934-4.374 3.57-3.967l21.666 3.302z" fill="#F9543E"/><path d="M142.513 243.356s-6.768 15.476-6.768 18.025" stroke="#45424F" stroke-width="4.9" stroke-miterlimit="10"/><path d="M173.421 235.099c6.19.045 10.245 1.82 12.623 10.721a328.715 328.715 0 0 0 1.854 6.575c.861 2.976 1.82 6.298 2.833 10.121l-7.322.094h-5.044c-1.938 0-4.128.03-6.566.03-10.878 0-19.412-.327-26.017-.992-12.806-1.304-15.046-3.615-15.427-4.289-.079-.144-.252-.446.217-1.23l.218-.367c2.373-3.848 7.145-8.211 13.098-11.98 6.428-4.071 13.473-6.942 19.827-8.113a85.326 85.326 0 0 1 9.706-.57zm0-1.949a88.47 88.47 0 0 0-10.003.595c-14.17 2.569-29.236 12.794-34.289 21.011l-.218.372c-5.182 8.643 24.722 9.466 42.888 9.466 4.262 0 7.872-.045 10.225-.045h1.385l9.824-.124c-2.066-8.073-3.955-13.939-5.32-19.116-2.472-9.253-6.922-12.104-14.492-12.164v.005z" fill="#45424F"/><path d="M356.786 317.781l4.322-15.868c.657-2.41-.846-4.383-3.333-4.383h4.529c2.472 0 3.99 1.983 3.333 4.383l-4.322 15.868a6.281 6.281 0 0 1-5.721 4.384h-4.539a6.267 6.267 0 0 0 3.555-1.285 6.292 6.292 0 0 0 2.176-3.099z" fill="#C82E27"/><path d="M218.797 262.605c3.347.804 1.428 1.374 8.123 2.019 6.695.644 27.081 1.219 40.372 1.219 13.29 0 36.539-.193 34.393-1.983h-16.569l-48.628-1.24-17.691-.015z" fill="#4E4C59"/><path d="M290.841 290.325c-6.793-3.248-25.399-14.381-33.849-13.632 9.636 3.109 9.033 9.838 20.034 11.866 4.563.883 9.177 1.473 13.815 1.766z" fill="#F2E1DD"/><path opacity=".7" d="M259.539 279.688c-2.384-1.834-2.542-1.864-4.826-2.355l-.094.045c-5.281 3.143-1.197 8.35 4.944 11.043 9.622 3.263 2.779-6.576-.024-8.733z" fill="#F4EEED"/><path d="M372.845 290.508a6.918 6.918 0 0 0-.228-.773l-3.238-7.83a14.79 14.79 0 0 0-3.165-3.714c-6.101 3.035-11.055 9.734-13.74 12.134 0 0 11.931.63 20.371.183z" fill="#F2E1DD"/><path opacity=".7" d="M285.67 290.637c-3.283-3.808-14.156-9.654-22.912-13.21a24.219 24.219 0 0 0-3.639-.699c-1.172-.114 12.395 2.737 17.379 13.845 3.264.119 6.097.114 9.172.064z" fill="#fff"/><path d="M257.966 297.946c3.738 12.179 2.893 22.211 2.71 32.976l7.347 1.101s3.041-20.911-4.84-40.707l-5.217 6.63z" fill="#D6332B"/><path d="M255.133 332.385h16.529a2.274 2.274 0 0 0 2.265-2.271v-2.048a2.285 2.285 0 0 0-.666-1.603 2.27 2.27 0 0 0-1.599-.668h-16.529v6.59z" fill="#D6332B"/><path d="M331.99 303.783h-31.323c-.751 0-1.36.61-1.36 1.363v8.301c0 .754.609 1.364 1.36 1.364h31.323c.751 0 1.36-.61 1.36-1.364v-8.301c0-.753-.609-1.363-1.36-1.363z" fill="#FFFDF4"/><path d="M300.667 314.811h4.025v-11.028h-4.025a1.357 1.357 0 0 0-1.36 1.363v8.301a1.367 1.367 0 0 0 1.36 1.364z" fill="#8CBFB1"/><path opacity=".3" d="M289.107 305.35h60.01l1.84-6.263h-61.85v6.263z" fill="#2C2933"/><path opacity=".2" d="M129.213 256.447c-1.518 3.55-5.844 14.722-5.834 24.922" stroke="#37333F" stroke-width="1.96" stroke-miterlimit="10" stroke-linecap="square"/><path d="M145.757 271.298l-13.058-.917 13.058.917z" fill="#F9543E" stroke="#D6332B" stroke-width="8.82" stroke-linejoin="round"/><path d="M236.606 291.862c5.073 2.648 8.772 10.736 8.772 20.306a35.416 35.416 0 0 1-.277 4.463c-.94 7.562-4.238 13.632-8.505 15.868-4.272-2.222-7.565-8.291-8.504-15.868a35.045 35.045 0 0 1-.277-4.463c0-9.58 3.703-17.668 8.791-20.306z" fill="#CAD5D7" style="mix-blend-mode:lighten"/><path d="M208.161 314.236h-6.057c-2.21 0-4.015-2.658-4.015-5.906v-3.967a5.958 5.958 0 0 1 1.737-4.163 5.927 5.927 0 0 1 4.152-1.743h6.215s-2.022 4.2-2.022 10.909l-.01 4.87z" fill="#2C2933" style="mix-blend-mode:darken"/><path d="M239.31 296.513c.495.253 4.673 4.82 4.673 15.159s-4.178 16.329-4.673 16.592c-3.461 0-6.818-6.481-7.55-12.397a27.39 27.39 0 0 1-.217-3.471c0-7.497 3.347-15.883 7.767-15.883z" fill="#3A3842"/><path d="M227.815 312.168h17.563M239.623 328.378l.905-16.21-.905-16.215" stroke="#CAD5D7" stroke-width="3.92" stroke-miterlimit="10" style="mix-blend-mode:lighten"/><path d="M233.081 301.566l7.446 10.602-7.446 11.048" stroke="#CAD5D7" stroke-width="3.92" stroke-miterlimit="10"/><path d="M244.488 320.077l-3.961-7.909 3.471-9.764" stroke="#CAD5D7" stroke-width="3.92" stroke-miterlimit="10" style="mix-blend-mode:lighten"/><path d="M239.805 306.347c1.879 0 3.397 2.608 3.397 5.826 0 .408-.024.815-.074 1.22-.327 2.628-1.686 4.602-3.318 4.602-1.632 0-2.996-1.984-3.323-4.602a9.95 9.95 0 0 1-.074-1.22c0-3.218 1.518-5.826 3.392-5.826z" fill="#CAD5D7" style="mix-blend-mode:lighten"/><path d="M104.822 290.741c6.843 0 12.386 9.506 12.386 21.229a36.385 36.385 0 0 1-.272 4.463c-1.197 9.58-6.166 16.77-12.114 16.77s-10.912-7.19-12.109-16.77a36.247 36.247 0 0 1-.272-4.463c0-11.723 5.543-21.229 12.361-21.229h.02z" fill="#8C98A4" stroke="#DFE7E8" stroke-width="4.9" stroke-miterlimit="10"/><path d="M108.436 291.664c5.078 2.648 8.772 10.735 8.772 20.306a36.385 36.385 0 0 1-.272 4.463c-.944 7.562-4.237 13.631-8.509 15.868-4.272-2.222-7.565-8.291-8.505-15.868a36.266 36.266 0 0 1-.272-4.463c0-9.581 3.689-17.668 8.786-20.306z" fill="#CAD5D7" style="mix-blend-mode:lighten"/><path d="M111.151 296.32c.495.248 4.678 4.815 4.678 15.154 0 10.339-4.173 16.329-4.683 16.592-3.461 0-6.818-6.481-7.555-12.397a28.569 28.569 0 0 1-.212-3.471c0-7.493 3.342-15.878 7.772-15.878z" fill="#3A3842"/><path d="M99.65 311.97h17.558M111.458 328.18l.905-16.21-.905-16.215" stroke="#CAD5D7" stroke-width="3.92" stroke-miterlimit="10" style="mix-blend-mode:lighten"/><path d="M104.911 301.368l7.451 10.602-7.451 11.048" stroke="#CAD5D7" stroke-width="3.92" stroke-miterlimit="10"/><path d="M116.318 319.879l-3.955-7.909 3.466-9.759" stroke="#CAD5D7" stroke-width="3.92" stroke-miterlimit="10" style="mix-blend-mode:lighten"/><path d="M111.621 306.153c1.874 0 3.397 2.604 3.397 5.822 0 .408-.024.815-.075 1.22-.331 2.628-1.691 4.601-3.322 4.601-1.632 0-2.997-1.983-3.323-4.601a9.757 9.757 0 0 1-.074-1.22c0-3.218 1.518-5.827 3.397-5.822z" fill="#CAD5D7" style="mix-blend-mode:lighten"/><path d="M237.136 316.051c-.252 0-1.147-.873-1.4-2.901-.04-.329-.06-.66-.059-.992 0-2.479 1.093-3.882 1.454-3.882s1.483 1.378 1.483 3.882c.001.332-.019.663-.059.992-.277 2.028-1.172 2.901-1.419 2.901zM108.966 315.852c-.252 0-1.147-.872-1.4-2.9a8.027 8.027 0 0 1-.059-.992c0-2.48 1.093-3.878 1.459-3.878.366 0 1.483 1.374 1.483 3.878.001.331-.019.663-.059.992-.277 2.028-1.177 2.9-1.424 2.9z" fill="#DFEBED"/><path d="M188.205 265.844c-.45.991-2.304 2.221-6.606 3.074-4.301.853-13.023-1.126-13.023-1.126s4.361-2.563 16.193-2.563l3.436.615z" fill="#933838"/><path d="M187.345 262.605l-6.779-1.983-1.236 1.388s4.351 3.774 5.27 4.726c1.805 1.889 6.72-2.722 2.745-4.131z" fill="#D6332B"/><path d="M181.224 262.372s1.582 1.419 2.872 1.855c1.291.436 3.165-1.041 2.403-1.855l.846.243c3.955 1.409-.935 6.02-2.744 4.151-.757-.784-3.812-3.471-4.89-4.394h1.513z" fill="#C12F2F"/><path d="M181.071 254.666h-14.458a2.911 2.911 0 0 0-2.907 2.916v2.415a2.911 2.911 0 0 0 2.907 2.916h14.458a2.912 2.912 0 0 0 2.907-2.916v-2.415a2.912 2.912 0 0 0-2.907-2.916z" fill="#C12F2F"/><path d="M169.481 256.744c.044.346.22.662.491.88.271.219.617.323.963.29h10.685a1.194 1.194 0 0 0 1.461-1.17 1.199 1.199 0 0 0-1.461-1.17h-10.685a1.34 1.34 0 0 0-1.454 1.17z" fill="#F9543E"/><path d="M370.63 290.598l-7.115-10.791a38.157 38.157 0 0 0-4.851 4.096l6.235 6.764c1.924.005 3.872-.03 5.731-.069z" fill="#fff"/><path d="M301.803 130.752c-22.789-2.796-28.015 16.28-53.049 21.819 0 0-31.214.818-26.126 10.493 1.33 2.519 5.276 4.507 8.485 5.142-6.794.942-11.778 1.934-11.778 1.934-36.347-19.652-44.129-9.625-44.129-9.625l45.345 20.906s59.116-1.984 60.288-2.038c1.172-.055 19.318-26.599 19.318-26.599l116.476 42.234 8.124-29.212s-116.086-34.211-122.954-35.054z" fill="#F58D6C"/><path d="M167.616 160.569c5.251-3.739 19.284-5.668 44.243 13.562 0 0 19.778-3.064 37.964 5.767 0 0 47.194-45.566 59.743-46.275 12.549-.709 115.206 32.158 115.206 32.158l7.807 36.536-33.859 7.274-78.048-42.531s-48.654 32.832-55.507 37.404c-8.84 5.881-36.831-12.967-54.947-16.051-6.186-1.052-33.697-17.639-42.379-22.94a2.959 2.959 0 0 1-.995-1.022 2.988 2.988 0 0 1-.126-2.772c.205-.438.514-.819.898-1.11z" fill="#FFB287"/><path d="M325.211 194.026l18.992-53.976 89.543 26.445L445 208.262l-49.345 10.002-70.444-24.238z" fill="#fff"/><path d="M325.211 194.026l28.134-51.274L445 208.262l-49.345 10.002-70.444-24.238z" fill="#90AFAF"/><path d="M332.86 200.968l21.32-60.591 90.819 29.272V247.332L332.86 200.968z" fill="#BA4200"/><path d="M351.367 194.785a4.47 4.47 0 0 1-.804 3.155 4.448 4.448 0 0 1-2.727 1.769 3.916 3.916 0 0 1-3.055-.626 3.934 3.934 0 0 1-1.637-2.662 4.47 4.47 0 0 1 .805-3.153 4.446 4.446 0 0 1 2.725-1.766 3.916 3.916 0 0 1 4.148 1.783c.281.457.467.968.545 1.5zM364.168 199.654a4.47 4.47 0 0 1-.805 3.153 4.449 4.449 0 0 1-2.725 1.766 3.898 3.898 0 0 1-3.07-.611 3.937 3.937 0 0 1-1.642-2.671 4.475 4.475 0 0 1 .806-3.155 4.452 4.452 0 0 1 2.729-1.765 3.906 3.906 0 0 1 3.066.614 3.93 3.93 0 0 1 1.641 2.669z" fill="#8E2F00"/><path d="M152.522 42.65s37.933 12.397 54.196-6.858l21.612 2.643s12.563 32.232 25.34 28.344c5.493-1.676-1.207-8.216-16.198-36.664 0 0-20.668-15.224-53.835-16.538L152.522 42.65z" fill="#F58D6C"/><path d="M0 89.178l84.55-54.62a54.335 54.335 0 0 0 5.78-4.364 37.047 37.047 0 0 1 14.106-7.384C128.728 16.027 190.257.08 197.886 0c3.763-.035 29.435 27.724 35.857 35.634a10.365 10.365 0 0 1 2.201 4.74c1.483 8.564 6.017 35.703 3.955 37.587-2.472 2.262-13.32 3.09-20.766-35.628l-26.844-9.873-8.03 12.303S154.934 72.56 117.46 56.004L0 167.288v-78.11z" fill="#FFB287"/><path d="M87.31 33.025S98.68 50.951 116.347 57.06l-8.559 8.723-23.733-29.659 3.253-3.099z" fill="#F58D6C"/><path d="M124.372 85.171L86.854 32.673 8.767 86.034l1.389 58.32 45.197-6.084 69.019-53.099z" fill="#fff"/><path d="M124.372 85.171l-46.61-46.096L4.42 145.128l50.933-6.858 69.019-53.099z" fill="#90AFAF"/><path d="M119.374 95.267L77.257 36.334 0 85.405v100.409l119.374-90.546z" fill="#374C58"/><path d="M100.817 95.758a3.238 3.238 0 0 0 4.26 2.637 3.238 3.238 0 0 0 1.525-1.103 3.255 3.255 0 0 0-1.15-4.886 3.232 3.232 0 0 0-4 .947 3.254 3.254 0 0 0-.635 2.405zM98.481 103.732a3.253 3.253 0 0 0-1.323-4.397 3.234 3.234 0 0 0-4.385 1.327 3.254 3.254 0 0 0 1.324 4.398 3.235 3.235 0 0 0 4.385-1.328z" fill="#2A3C44"/><path d="M186.796 45.293l-4.45-6.446c-.306-.283-.301-1.91.989-1.364 2.873 1.225 2.621 5.177 8.94-4.507l-5.479 12.317z" fill="#F58D6C"/><path d="M242.406 87.576a12.674 12.674 0 0 0-2.092-7.25 12.624 12.624 0 0 0-5.836-4.767 12.584 12.584 0 0 0-7.504-.585 12.61 12.61 0 0 0-6.502 3.802 12.674 12.674 0 0 0-3.186 6.84 12.692 12.692 0 0 0 1.263 7.44 12.648 12.648 0 0 0 5.263 5.397 12.589 12.589 0 0 0 7.39 1.431" stroke="#DFEDED" stroke-width="3.07" stroke-miterlimit="10"/><path d="M217.906 103.906l-.257 4.294c-.301 4.959 3.585 9.55 8.673 10.22l3.209.421c5.088.67 9.454-2.821 9.755-7.795l.257-4.294c.297-4.959-3.584-9.546-8.677-10.215l-3.298-1.894c-5.068-.67-9.365 4.289-9.662 9.263zm11.427-5.574c3.343.441 3.085 4.726-.257 4.289-3.342-.436-3.085-4.73.257-4.29z" fill="#102333"/><path d="M233.6 108.542l-1.27 21.204 2.818.312-.821 1.666-2.2 1.423-.03.496 2.715.184-.722 1.795-2.2 1.423-.03.496 2.714.183-.717 1.795-1.542.997-.732 1.656-5.276 4.195-4.499-5.479 1.454-24.228 1.107-1.845 9.231-6.273z" fill="#819DA5"/><path d="M232.438 139.212l-.079 1.23-5.276 4.195-4.494-5.48.717-11.99.178-2.97 1.122-18.67 9.771 1.285-1.029 17.172-.178 2.965-.059 1.066 1.992 1.979-2.205 1.423-.025.496 1.993 1.978-2.2 1.428-.03.491 1.998 1.979-2.196 1.423z" fill="#C8D6D6"/><path d="M233.17 126.999a490.343 490.343 0 0 1-9.864 1.725l.178-2.975a599.903 599.903 0 0 0 9.889-1.721l-.203 2.971z" fill="#D4E8E7"/><path d="M226.613 141.627l-1.814-3.248 1.898-31.687 1.993.263-2.077 34.672z" fill="#819DA5"/><path d="M240.463 109.073l.257-4.29c.302-4.958-3.585-9.545-8.673-10.22l-3.208-.426c-4.915-.645-9.162 2.593-9.711 7.309-.02.159-.035.324-.045.496l-.257 4.289a9.483 9.483 0 0 0 2.235 6.62 10.094 10.094 0 0 0 6.428 3.6l3.209.422c5.097.664 9.463-2.827 9.765-7.8zm-10.309-6.764c-3.348-.436-3.041-5.504.301-5.063 3.343.441 3.041 5.504-.301 5.063z" fill="#1F3242"/><path d="M230.203 102.919a2.89 2.89 0 0 0 3.041-1.526c.187-.36.296-.756.321-1.162a3.476 3.476 0 0 0-.815-2.328 3.455 3.455 0 0 0-2.151-1.198" stroke="#102333" stroke-width="2.9" stroke-miterlimit="10"/><path d="M222.05 114.21a11.434 11.434 0 0 0 5.468 2.241l3.204.422c1.797.258 3.63.039 5.316-.635" stroke="#102333" stroke-width="1.18" stroke-miterlimit="10"/><path d="M230.579 96.706a2.895 2.895 0 0 0-3.043 1.525c-.188.36-.298.757-.324 1.162a3.477 3.477 0 0 0 .824 2.336 3.46 3.46 0 0 0 2.168 1.19" stroke="#102333" stroke-width="2.9" stroke-miterlimit="10"/><path d="M228.082 104.654l.895 4.205c1.043 4.875 6.007 8.237 11.085 7.518l3.204-.456c5.083-.724 9.454-5.594 8.347-11.544l-1.929-2.792c-1.043-4.874-6.002-8.236-11.085-7.512l-3.689-.938c-5.083.724-7.871 6.65-6.828 11.519zm9.518-8.43c3.338-.495 4.232 3.725.895 4.201-3.338.476-4.237-3.734-.895-4.21v.01z" fill="#102333"/><path d="M244.77 104.575l4.435 20.772 2.798-.456-.346 1.82-1.74 1.969.104.481 2.665-.551-.213 1.919-1.735 1.969.099.481 2.665-.551-.213 1.919-1.216 1.379-.267 1.79-3.961 5.46-5.8-4.072-5.068-23.732.569-2.073 7.224-8.524z" fill="#819DA5"/><path d="M251.84 134.437l.252 1.205-3.96 5.459-5.8-4.071-2.507-11.747-.623-2.906-3.906-18.288 9.76-1.393 3.595 16.825.618 2.901.228 1.046 2.447 1.369-1.74 1.963.103.486 2.453 1.369-1.741 1.968.104.481 2.453 1.374-1.736 1.959z" fill="#C8D6D6"/><path d="M249.269 122.422a439.778 439.778 0 0 1-9.444 2.861l-.623-2.906a692.167 692.167 0 0 0 9.449-2.856l.618 2.901z" fill="#D4E8E7"/><path d="M246.871 138.329l-2.616-2.643-6.63-31.037 1.992-.282 7.254 33.962z" fill="#819DA5"/><path d="M251.518 103.241l-.894-4.205c-1.044-4.87-6.003-8.231-11.091-7.512l-3.199.45c-4.91.7-8.139 4.96-7.417 9.651.025.158.055.322.089.496l.9 4.205a9.473 9.473 0 0 0 3.921 5.776 10.091 10.091 0 0 0 7.165 1.736l3.204-.451c5.088-.734 8.366-5.271 7.322-10.146zm-11.036-4.046c-3.08 1.378-5.463-3.1-2.383-4.463 3.081-1.364 5.464 3.084 2.383 4.463z" fill="#2B4454"/><path d="M239.993 100.068a2.898 2.898 0 0 0 2.515-2.272c.085-.395.087-.804.007-1.2a3.443 3.443 0 0 0-1.412-2.037 3.422 3.422 0 0 0-2.41-.556" stroke="#102333" stroke-width="2.9" stroke-miterlimit="10"/><path d="M235.157 113.114a11.41 11.41 0 0 0 5.864.694l3.199-.456a10.412 10.412 0 0 0 4.945-2.038" stroke="#102333" stroke-width="1.18" stroke-miterlimit="10"/><path d="M235.954 97.801c3.876-1.05 6.359-6.624 6.452-10.225" stroke="#DFEDED" stroke-width="3.07" stroke-miterlimit="10"/><path d="M238.693 93.983a2.892 2.892 0 0 0-2.035 1.186 2.91 2.91 0 0 0-.486 2.31 3.468 3.468 0 0 0 1.418 2.026 3.455 3.455 0 0 0 2.404.563" stroke="#102333" stroke-width="2.9" stroke-miterlimit="10"/><path d="M110.261 54.457s22.086 8.098 48.163 9.322c14.6.721 28.936 4.167 42.275 10.16l9.133 4.102c11.817 5.34 19.283 15.506 24.312 6.68 5.028-8.827-13.069-20.912-28.653-26.58-15.585-5.667-24.189-30.213-24.189-30.213l-71.041 26.529z" fill="#FFB287"/><defs><linearGradient id="a" x1="250.307" y1="207.469" x2="243.857" y2="267.044" gradientUnits="userSpaceOnUse"><stop offset=".21" stop-color="#fff"/><stop offset="1" stop-color="#231F20"/></linearGradient><linearGradient id="b" x1="170.934" y1="211.069" x2="161.204" y2="253.405" gradientUnits="userSpaceOnUse"><stop stop-color="#fff"/><stop offset="1" stop-color="#231F20"/></linearGradient><linearGradient id="c" x1="100.437" y1="288.545" x2="125.564" y2="310.579" gradientUnits="userSpaceOnUse"><stop stop-color="#F9543E"/><stop offset=".27" stop-color="#F14D3A"/><stop offset=".68" stop-color="#DD392F"/><stop offset=".79" stop-color="#D6332B"/></linearGradient></defs></svg>