<svg width="445" height="345" viewBox="0 0 445 345" fill="none" xmlns="http://www.w3.org/2000/svg"><mask id="a" style="mask-type:alpha" maskUnits="userSpaceOnUse" x="0" y="0" width="445" height="345"><rect width="445" height="345" rx="10" fill="#C4C4C4"/></mask><g clip-path="url(#b)" mask="url(#a)"><path d="M445 0H0v446.294h445V0z" fill="#34495E"/><path d="M222.5 0H0v292.312l111.379-64.355 111.368-64.346L222.5 0z" fill="#3AB7AA"/><path d="M222.747 163.611l111.132 64.346L445 292.312V0H222.5l.247 163.611z" fill="#2CEBD8"/><path d="M445 172.755v14.708L222.54 58.375l.039-14.718L445 172.755zM445 147.872v14.708L222.54 33.492l.039-14.718L445 147.872z" fill="#17A68A"/><path d="M0 172.755v14.708L222.46 58.375l-.039-14.718L0 172.755zM0 147.872v14.708L222.46 33.492l-.039-14.718L0 147.872z" fill="#117D67"/><path opacity=".5" d="M33.711 446.294L0 426.776v-1.151l35.689 20.669h-1.978zM445 425.625l-35.689 20.669h1.978L445 426.776v-1.151zM222.747 163.641L445 292.312v1.141l-53.687-31.092-55.289 32.014 55.289 32.014L445 295.298v1.14l-52.698 30.517L445 357.471v1.151l-53.687-31.092-55.289 32.014 55.289 32.004L445 360.466v1.141l-52.698 30.517L445 422.64v1.141l-53.687-31.043-55.289 31.965 37.282 21.591h-1.978l-36.292-21.016-36.293 21.016h-1.977l37.281-21.591-55.279-31.965-55.279 31.965 37.281 21.591h-1.978L222.5 425.278l-36.292 21.016h-1.978l37.281-21.591-55.279-31.965-55.289 32.005 37.282 21.551h-1.978l-36.292-21.016-36.283 21.016h-1.978l37.282-21.591-55.29-31.965L0 423.781v-1.141l52.698-30.516L0 361.607v-1.141l53.687 31.082 55.289-32.004-55.29-32.014L0 358.622v-1.151l52.698-30.516L0 296.438v-1.14l53.687 31.091 55.289-32.014-55.29-32.014L0 293.453v-1.141l222.5-128.84.247.169zm-111.744 65.595l55.279 32.014 55.229-32.044-55.279-32.004-55.229 32.034zm56.268 97.748l55.229 32.034 55.279-32.014L222.5 294.95l-55.229 32.034zm54.24-32.609l-55.279-32.014-55.279 32.014 55.279 32.014 55.279-32.014zm57.257 32.014l55.279-32.014-55.279-32.014-55.279 32.014 55.279 32.014zm-.989-64.593L222.5 229.782l-55.279 32.044L222.5 293.8l55.279-32.004zM109.964 293.8l55.279-31.974-55.279-32.015-55.288 32.015 55.288 31.974zm0 65.169l55.279-32.014-55.279-32.005-55.288 32.005 55.288 32.014zm55.279 33.155l-55.279-32.015-55.288 32.015 55.288 32.014 55.279-32.014zm.989-.576l55.279-32.004-55.279-32.014-55.279 32.014 55.279 32.004zm111.547.576L222.5 360.109l-55.279 32.015 55.279 32.014 55.279-32.014zm.989-.576l55.279-32.004-55.279-32.014-55.279 32.014 55.279 32.004zm56.268-31.439l-55.279 32.015 55.279 32.014 55.288-32.014-55.288-32.015zm0-65.159l-55.279 32.005 55.279 32.063 55.288-32.014-55.288-32.054zm0-65.168l-55.279 32.044 55.279 32.004 55.288-32.004-55.288-32.044zm-56.268-32.58l-55.279 32.004 55.279 32.015 55.279-32.015-55.279-32.004zm-.989-.575L222.5 164.633l-55.279 32.014 55.279 31.994 55.279-32.014z" fill="url(#c)"/><path d="M222.5 425.278l111.25-64.415L445 296.438v149.856H222.5v-21.016z" fill="#1D2A36"/><path d="M222.5 446.294H0V296.438l111.25 64.425 111.25 64.415v21.016z" fill="#2C3E50"/><path d="M279.638 263.065a94.602 94.602 0 0 0-27.6-10.79l-6.111-1.359a75.41 75.41 0 0 1 21.904 8.559c23.97 14.47 23.15 37.528-1.84 51.502-24.989 13.974-64.683 13.578-88.654-.892-23.97-14.47-23.159-37.538 1.83-51.512a77.223 77.223 0 0 1 19.896-7.528l-6.091 1.438a97.431 97.431 0 0 0-25.078 9.491c-31.497 17.614-32.535 46.683-2.314 64.921 30.22 18.239 80.248 18.745 111.744 1.131 31.496-17.614 32.534-46.722 2.314-64.961z" fill="#2C3E50" style="mix-blend-mode:multiply" opacity=".6"/><path d="M192.972 245.491l6.091-1.438a77.223 77.223 0 0 0-19.896 7.528c-24.989 13.974-25.81 37.032-1.83 51.512l-11.757 16.81c-30.221-18.238-29.183-47.307 2.314-64.921a97.431 97.431 0 0 1 25.078-9.491z" fill="#95A5A6"/><path d="M222.672 314.221c34.631-.097 62.66-16.485 62.604-36.603-.056-20.119-28.176-36.349-62.807-36.252-34.631.097-62.66 16.485-62.604 36.603.056 20.118 28.176 36.349 62.807 36.252z" fill="#ECF0F1"/><path d="M245.927 243.974l6.111 1.408a94.605 94.605 0 0 1 27.6 10.791c30.22 18.238 29.182 47.297-2.314 64.91-31.496 17.614-81.524 17.108-111.744-1.18l11.757-16.81c23.971 14.47 63.665 14.876 88.654.892 24.99-13.983 25.81-37.032 1.84-51.502a75.416 75.416 0 0 0-21.904-8.509z" fill="#BDC3C7"/><path d="M164.927 276.097v-3.154c0 8.331 5.35 16.642 16.05 23.098v3.154c-10.7-6.466-16.03-14.777-16.05-23.098z" fill="#D35400"/><path d="M280.231 272.616v3.144c0 8.817-5.933 17.643-17.74 24.258-22.982 12.893-59.482 12.477-81.524-.823v-3.154c22.042 13.31 58.542 13.687 81.524.833 11.827-6.615 17.77-15.441 17.74-24.258z" fill="#E67E22"/><path d="M180.967 296.041c-22.043-13.299-21.291-34.503 1.691-47.356 22.981-12.854 59.471-12.477 81.524.823 22.052 13.299 21.29 34.513-1.691 47.366-22.982 12.854-59.482 12.477-81.524-.833z" fill="#F1C40F"/><path d="M301.403 291.34l-4.944-9.917 2.967-4.275c-3.155-7.666-9.741-14.965-19.828-21.045a71.94 71.94 0 0 0-19.718-8.291l-70.686 19.964-23.614 22.92 38.863 25.587 3.955 2.291 1.978-.198 8.445 2.688 25.435-8.381h21.538l35.491-20.668c.049-.258.089-.437.118-.675z" fill="#34495E" style="mix-blend-mode:multiply" opacity=".3"/><path d="M225.457 288.048l-12.49-7.23 17.474-1.418-4.984 8.648z" fill="#4D1712"/><path d="M207.133 294.157a3.854 3.854 0 0 0 1.523 3.372l3.777 2.192c1.246.704-.504-1.537 1.533-2.708 3.748-2.182 6.794-7.001 6.794-10.76 0-1.389 3.174-.357 2.472-.992-.069-.06-3.709-2.192-3.788-2.241-1.236-.992-3.233-.923-5.478.386-3.788 2.162-6.833 6.982-6.833 10.751z" fill="#10181F"/><path d="M273.972 259.961l-12.5-7.23 17.474-1.418-4.974 8.648z" fill="#4D1712"/><path d="M255.687 265.862a3.917 3.917 0 0 0 1.493 3.412l3.788 2.192c1.246.694-.514-1.538 1.523-2.718 3.757-2.172 6.803-6.992 6.803-10.761 0-1.378 3.175-.357 2.472-.991-.069-.06-3.718-2.192-3.787-2.252-1.236-.991-3.234-.912-5.488.387-3.758 2.152-6.804 6.972-6.804 10.731z" fill="#10181F"/><path d="M238.916 221.381l-7.546-7.517-38.497 22.523-9.009 15.64 4.905-1.855 50.147-28.791z" fill="#2980B9"/><path d="M164.294 269.313c8.208 6.526 18.957 10.265 27.798 15.948 4.321 2.777 8.554 5.722 12.628 8.926l23.071-23.436c-3.234-2.35-6.28-4.958-8.9-7.12-2.453-1.984-5.024-4.037-7.585-6.139-6.715-1.845-14.319-3.313-19.689-7.706a13.74 13.74 0 0 1-1.978-1.984l-.86 2.37-4.944 1.855-20.253 14.757-.445 2.053a2.24 2.24 0 0 1 1.157.476z" fill="#E74C3C"/><path d="M184.695 285.896c-7.338-4.285-15.674-7.627-22.497-12.745l-.495 2.301-1.147 1.607v4.602l35.946 20.827 5.162-5.247a157.588 157.588 0 0 0-16.969-11.345z" fill="#BDC3C7"/><path d="M224.478 218.109l3.955-2.311 14.517 16.414h-.069c4.153 3.481 8.227 7.101 12.223 10.78l6.21-6.298 14.586 8.133 7.911-6.1-35.936-20.827-10.977 4.265-6.378-9.62-7.694 4.443 1.652 1.121z" fill="#E74C3C"/><path d="M274.862 242.189l-7.555-7.508-36.728 19.449-10.769 18.714 4.905-1.855 50.147-28.8z" fill="#2980B9"/><path d="M196.502 297.876v4.612l13.479-5.475.425-.248c0-4.165 3.362-9.501 7.525-11.901 4.164-2.4 7.526-.991 7.526 3.194l33.454-19.369c0-4.166 3.372-9.501 7.525-11.902 4.154-2.4 7.536-.991 7.536 3.194l.514-.298 11.194-8.816v-4.612l-1.464-.099-.425-7.409-10.976 4.235-6.379-9.62-35.857 20.767-5.864 16.86-4.944 1.855-20.243 14.767-1.879 8.678-1.147 1.587zm54.32-53.426l13.547-7.835 2.967 9.709-16.514 9.551V244.45zm-22.577 24.496l4.025-13.755 15.506-8.976v11.415l-19.531 11.316z" fill="#A33125"/><path d="M250.011 258.364l33.8-19.557v-.08l-10.996 4.255-6.379-9.62-16.425 9.511v15.491zm.811-2.489V244.45l13.548-7.835 2.966 9.709-16.514 9.551zM248.557 243.716l-17.978 10.414-5.864 16.859-4.944 1.855-20.243 14.767 49.029-28.394v-15.501zm-.781 2.499v11.415l-19.531 11.316 4.025-13.755 15.506-8.976z" fill="#C0392B"/><path d="M285.68 250.708v.139l-11.194 8.817-.514.297a5.333 5.333 0 0 0-.455-2.212l12.163-7.041zM210.851 294.038a10.054 10.054 0 0 0-.445 2.727l-.425.248-13.479 5.475v-.139l14.349-8.311zM259.356 265.951a10.061 10.061 0 0 0-.445 2.728l-33.444 19.369a5.51 5.51 0 0 0-.445-2.212l34.334-19.885z" fill="#80261D"/><path d="M197.659 296.2l86.548-50.114v.05l1.374.089-16.366 9.481a8.889 8.889 0 0 0-2.789 1.062 14.567 14.567 0 0 0-2.778 2.162L220.7 283.793a8.905 8.905 0 0 0-2.779 1.061 14.681 14.681 0 0 0-2.788 2.162l-18.581 10.761 1.087-1.517.02-.06z" fill="#ECF0F1"/><path d="M281.378 243.508l-2.521 1.468v1.269l2.601-1.507-.08-1.23zM201.506 290.874l2.897-1.686v-1.537l-2.897 1.676v1.547z" fill="#F1C40F"/><path d="M259.633 268.262c0 3.769 3.046 5.058 6.803 2.876 3.758-2.182 6.804-6.992 6.804-10.76 0-3.769-3.046-5.058-6.804-2.876-3.757 2.181-6.803 6.991-6.803 10.76z" fill="#233140"/><path d="M261.541 267.151c0 2.718 2.196 3.64 4.895 2.083 2.7-1.557 4.895-5.038 4.895-7.746 0-2.707-2.185-3.639-4.895-2.082-2.709 1.557-4.895 5.038-4.895 7.745z" fill="#D9DDDE"/><path d="M262.421 266.646c0 2.231 1.8 2.975 4.015 1.705 2.215-1.269 4.025-4.135 4.025-6.357 0-2.221-1.8-2.975-4.025-1.706-2.225 1.27-4.015 4.136-4.015 6.358z" fill="#95A5A6"/><path d="M264.903 265.208c0 .852.693 1.14 1.533.644a3.15 3.15 0 0 0 1.533-2.42c0-.853-.682-1.14-1.533-.644a3.19 3.19 0 0 0-1.533 2.42z" fill="#ECF0F1"/><path d="M211.019 296.408c0 3.769 3.046 5.058 6.804 2.886 3.757-2.172 6.803-6.942 6.803-10.76 0-3.819-3.046-5.058-6.803-2.886-3.758 2.172-6.804 6.992-6.804 10.76z" fill="#233140"/><path d="M212.928 295.308c0 2.707 2.195 3.639 4.944 2.072 2.749-1.567 4.895-5.028 4.895-7.745 0-2.718-2.185-3.64-4.895-2.073-2.709 1.567-4.944 5.008-4.944 7.746z" fill="#D9DDDE"/><path d="M213.808 294.802c0 2.221 1.799 2.975 4.015 1.696a8.345 8.345 0 0 0 4.024-6.358c0-2.221-1.799-2.975-4.024-1.705-2.225 1.269-4.015 4.135-4.015 6.367z" fill="#95A5A6"/><path d="M216.29 293.354c0 .853.692 1.14 1.533.654a3.2 3.2 0 0 0 1.532-2.43c0-.843-.682-1.13-1.532-.644a3.19 3.19 0 0 0-1.533 2.42z" fill="#ECF0F1"/><path d="M266.436 233.362L230.5 212.555l-35.867 20.757 35.946 20.817 35.857-20.767z" fill="#E77266"/><path d="M227.029 260.467l-35.946-20.807 3.55-6.348 35.946 20.817-3.55 6.338z" fill="#2980B9"/><path d="M219.81 272.844l-35.946-20.817 7.219-12.367 35.946 20.807-7.219 12.377z" fill="#51ACE8"/><path d="M199.528 287.582l-35.946-20.808-1.879 8.678 35.946 20.808 1.879-8.678z" fill="#80261D"/><path d="M170.03 278.09l19.095 11.059 1.038-4.81-19.095-11.059-1.038 4.81z" fill="#BDC3C7"/><path d="M170.989 276.97l.395-1.825 17.81 10.314-.395 1.825-17.81-10.314z" fill="#263545"/><path d="M196.502 297.876l-35.946-20.817v4.612l35.946 20.817v-4.612z" fill="#80261D"/><path d="M196.789 290.666a1.811 1.811 0 0 1-1.029 1.54 1.795 1.795 0 0 1-1.839-.181 4.366 4.366 0 0 1-1.978-4.166 1.812 1.812 0 0 1 1.025-1.547 1.796 1.796 0 0 1 1.843.179 4.386 4.386 0 0 1 1.978 4.175zM168.734 274.53a1.793 1.793 0 0 1-1.965 1.706 1.787 1.787 0 0 1-.893-.347 4.367 4.367 0 0 1-1.977-4.166 1.801 1.801 0 0 1 1.973-1.704c.323.032.633.152.894.346a4.365 4.365 0 0 1 1.968 4.165z" fill="#ECF0F1"/><path d="M280.498 219.973c.159 1.894.218 3.868.277 4.721l.89.079c0-1.864-.188-3.411-.247-4.83l-.92.03z" fill="#000"/><path d="M280.924 186.293c.138 1.458.276 2.906.425 4.364.217 2.31.771 4.641.603 6.942-.415 5.851-1.058 11.693-1.711 17.534l1.167 4.88-1.978 6.942-5.102.08c.445 0 1.602-9.769 1.72-10.771a28.588 28.588 0 0 0-.504-7.567l-1.454-10.196a23.612 23.612 0 0 1-.415-4.849 16.22 16.22 0 0 0 0-2.291c0-.645-.475-1.904-.267-2.49.297-.862 1.79-.991 2.621-1.19l4.895-1.388z" fill="#BA8B75"/><path d="M274.367 227.005v1.349l3.699-.07a1.625 1.625 0 0 0 1.562-1.249l1.286-5.316.474-1.696-.366-1.518s-2.808 7.329-3.115 7.339c-.306.01-2.966 0-2.966 0l-.109-1.041-.465 2.202z" fill="#242424"/><path d="M269.324 152.662a3.273 3.273 0 0 1-3.31 1.528 3.29 3.29 0 0 1-2.67-2.485 3.294 3.294 0 0 1 .393-2.484l9.394-16.067a3.272 3.272 0 0 1 2.026-1.478 3.246 3.246 0 0 1 2.474.397 3.292 3.292 0 0 1 1.523 3.319 3.29 3.29 0 0 1-.446 1.204l-9.384 16.066z" fill="#fff"/><path d="M286.451 136.11c-.445-.685-4.38.347-7.545.347-3.164 0-4.529-1.885-4.529 1.289s.465 17.693 3.629 17.693c3.165 0 10.156-16.652 8.445-19.329z" fill="#DCDCDC"/><path d="M284.493 139.561l-6.615 12.774-.88-18.596a7.645 7.645 0 0 0-3.768.992c-2.126 5.247-4.361 8.063-2.077 13.885a32.597 32.597 0 0 1 1.909 13.686c-.069.605-.129 1.25-.198 1.904 1.612.129 3.956 1.151 5.014 1.379 2.204.443 4.477.406 6.665-.109l-.05-25.915z" fill="#DCDCDC"/><path d="M269.393 152.236a3.3 3.3 0 0 0 .038-2.53 3.287 3.287 0 0 0-1.759-1.814l-12.618-5.544a7.335 7.335 0 0 1-.336 3.788 6.422 6.422 0 0 1-1.928 2.46l12.232 5.395a3.298 3.298 0 0 0 2.551.037 3.33 3.33 0 0 0 1.82-1.792z" fill="#fff"/><path d="M255.756 146.186c-.672 1.736-1.977 2.856-2.867 2.509-.89-.347-1.118-2.043-.455-3.779.662-1.735 1.977-2.856 2.868-2.499.89.357 1.127 2.043.454 3.769z" fill="#0B2130"/><path d="M255.578 146.117c-.603 1.547-1.74 2.548-2.561 2.231-.821-.317-.989-1.815-.395-3.362.593-1.547 1.74-2.539 2.551-2.232.811.308.999 1.825.405 3.363z" fill="#DCDCDC"/><path d="M286.778 223.147c.099 1.904.089 3.878.128 4.731l.88.109c0-1.865-.069-3.422-.089-4.84h-.919z" fill="#000"/><path d="M288.261 189.546c.099 1.448.188 2.906.287 4.364.158 2.32.633 4.671.395 6.942-.603 5.841-1.433 11.653-2.264 17.465l.989 4.959-2.126 6.813-5.113-.069c.455 0 1.919-9.72 2.057-10.711a28.203 28.203 0 0 0-.257-7.577c-.376-3.419-.755-6.834-1.137-10.245a22.918 22.918 0 0 1-.257-4.86c.079-.761.108-1.526.089-2.291 0-.635-.416-1.914-.198-2.489.326-.863 1.819-.903 2.67-1.111l4.865-1.19z" fill="#DEB09D"/><path d="M280.429 230.03v1.339l3.699.059a1.64 1.64 0 0 0 1.602-1.21l1.443-5.276.525-1.676-.307-1.527s-3.046 7.239-3.352 7.239l-2.967-.138-.069-.992-.574 2.182z" fill="#242424"/><path d="M289.744 194.505c1.276-1.607 2.967-15.174 2.473-20.827-.198-2.242-2.967-8.51-2.967-8.708-.119-.357-5.666-1.746-10.294-1.2-2.345.307-4.66.808-6.923 1.497 0 0-.86 16.494.119 28.543.326 4.602 14.299 4.81 17.592.695z" fill="#2C3E50"/><path d="M271.687 167.013s0 1.984 9.978 1.488c8.05-.407 8.06-2.391 8.06-2.391s2.492-24.704 2.274-26.341c-.069-.496-7.347-5.187-7.347-5.187s-1.118.814-4.609 5.713a65.767 65.767 0 0 0-4.717 7.736c-.307-3.12.029-6.27.989-9.254a39.365 39.365 0 0 1 2.819-6.991l-3.62-.288a3.462 3.462 0 0 0-1.977 1.21c-1.345 2.162-4.638 7.289-4.945 9.64-.316 2.519 1.978 8.559 2.275 11.048.336 2.727.82 13.617.82 13.617z" fill="#E74C3C"/><path d="M287.431 140.116c.988-1.527 2.511 0 4.153-.783.247.208.405.367.415.436.218 1.637-2.274 26.342-2.274 26.342s-.139 1.368-4.342 1.983c0-11.028-2.294-14.192-2.294-17.356 0-2.529 2.295-7.488 4.342-10.622z" fill="#C0392B"/><path d="M275.653 138.182c-1.84-.922-1.355-3.709.929-5.266.228-.159 1.395.585 1.8.992a6.66 6.66 0 0 1 1.137 3.074s-2.027 2.123-3.866 1.2z" fill="#fff"/><path d="M284.128 132.222v3.342s-.564 1.676-3.274 1.676c-2.709 0-2.739-1.289-2.769-1.418l.129-2.767.079-1.349 5.835.516z" fill="#E9AE93"/><path d="M281.685 118.674c-1.305-2.568-2.413-3.828-4.262-2.489a7.015 7.015 0 0 0-1.503.605 13.793 13.793 0 0 0-3.095 5.385 14.26 14.26 0 0 1-3.333 7.488.288.288 0 0 0 .049.446c5.182 3.63 9.988.715 12.045-4.72.781-2.063 1.137-4.672.099-6.715z" fill="#291222"/><path d="M287.539 128.404c-3.421 3.352-4.341 6.149-7.753 3.897-3.411-2.251-6.141-7.934-5.32-12.645.87-5.028 8.149-6.664 12.223-4.344 5.933 3.382 4.173 9.839.85 13.092z" fill="#3E1C33"/><path d="M286.362 126.113c-.227 1.428-1.206 5.603-2.244 6.367-1.464 1.081-4.876 2.787-6.794 1.487-2.571-1.735-2.967-6.396-2.967-10.959 0-4.562 3.461-5.415 6.418-3.471 2.957 1.944 6.289 2.073 5.587 6.576z" fill="#E9C2B0"/><path d="M286.273 126.301c-.405 1.2-.989 1.904-1.73 1.805-.742-.099-1.157-.902-.989-2.152.168-1.25 1.256-2.172 1.978-2.073.722.099 1.246 1.081.741 2.42z" fill="#E9C2B0"/><path d="M282.822 116.542c-1.453-2.152-4.509-.883-6.259.149-3.135 1.855-3.699 5.088-4.361 8.42 0 .198.138.456.356.367 3.827-1.537 8.9-4.413 10.788-8.281.307-.099-.286-.288-.524-.655z" fill="#3E1C33"/><path d="M292.286 123.484c-.91-2.667-2.64-6.684-5.37-8.152-3.026-1.626-6.566 1.805-5.725 4.056 1.621 4.334 2.521 9.115-.287 12.209a.336.336 0 0 0 .237.575c3.313.308 6.922.992 10.018-.644 3.095-1.637 1.997-5.524 1.127-8.044z" fill="#3E1C33"/><path d="M286.323 135.693a4.539 4.539 0 0 1-.257.992c-1.78 4.126-4.341 4.314-6.359 3.709a1.884 1.884 0 0 1-.267-3.243 9.502 9.502 0 0 0 1.642.119 3.487 3.487 0 0 0 2.967-1.666v-2.192a25.764 25.764 0 0 1 2.274 2.281zM293.285 160.547a3.08 3.08 0 0 1-.835 2.19 3.057 3.057 0 0 1-2.132.963 3.058 3.058 0 0 1-2.172-.844 3.077 3.077 0 0 1-.953-2.131l-.475-18.774c-.021-.812.279-1.6.835-2.191a3.061 3.061 0 0 1 2.132-.963 3.067 3.067 0 0 1 3.125 2.976l.475 18.774z" fill="#fff"/><path d="M292.948 159.773a2.972 2.972 0 0 0-2.72-1.944 2.935 2.935 0 0 0-1.156.209l-16.514 6.386a6.771 6.771 0 0 1 2.175 2.688c.325.908.426 1.881.297 2.837l16.188-6.308a2.96 2.96 0 0 0 1.672-1.571 2.983 2.983 0 0 0 .058-2.297z" fill="#fff"/><path d="M275.445 166.497c.663 1.557.524 3.105-.297 3.462-.82.357-1.977-.625-2.679-2.182-.703-1.557-.525-3.115.296-3.462s2.018.615 2.68 2.182z" fill="#0B2130"/><path d="M275.277 166.616c.593 1.389.475 2.767-.257 3.085-.732.317-1.8-.556-2.383-1.984-.584-1.428-.475-2.777.257-3.084.732-.308 1.8.545 2.383 1.983z" fill="#DCDCDC"/><path d="M255.133 145.006c-.01.262-.053.522-.128.773v.05a1.287 1.287 0 0 1-.089.248 3.07 3.07 0 0 1-.544.892 1.318 1.318 0 0 1-.237.229c-.544-.06-.703 0-1.227-.05l-.692-.139a20.761 20.761 0 0 1-1.711-.407 4.547 4.547 0 0 1-1.977-1.209 2.06 2.06 0 0 1-.366-1.885c.07-.221.192-.422.356-.585a1.414 1.414 0 0 1 1.157-.486c.304.046.598.143.87.288l2.413 1.2.722.347c.652.367.9.525 1.453.734z" fill="#F9CFB3"/><path d="M243.207 135.623l8.198 10.78a.229.229 0 0 1 0 .228.71.71 0 0 1-.514.407c-.109 0-.188 0-.228-.07l-7.98-10.909a.166.166 0 0 0 .158 0 .494.494 0 0 0 .366-.288c.059-.059.059-.119 0-.148z" fill="#2C3E50"/><path d="M243.207 135.624l8.198 10.78-8.198-10.78z" fill="#AA2A41"/><path d="M243.207 135.624l8.198 10.78c.01.036.01.073 0 .109l-8.138-10.82a.077.077 0 0 0 0-.069h-.06z" fill="#2C3E50"/><path d="M243.267 135.693l8.207 10.82a.266.266 0 0 1 0 .119.668.668 0 0 1-.158.228l-8.148-10.909a.413.413 0 0 0 .108-.159.136.136 0 0 0 0-.089l-.009-.01z" fill="#34495E"/><path d="M243.098 135.939l8.148 10.91a.83.83 0 0 1-.148.109l-8.109-10.959a.39.39 0 0 0 .109-.07v.01z" fill="#2C3E50"/><path d="M242.99 136.009l8.109 10.959a.576.576 0 0 1-.208.07c-.109 0-.188 0-.227-.07l-7.981-10.909a.166.166 0 0 0 .158 0 .387.387 0 0 0 .149-.06v.01z" fill="#1F2B38"/><path d="M243.049 135.574c.148 0 .218.069.158.208a.485.485 0 0 1-.366.287c-.138 0-.217-.08-.158-.218a.486.486 0 0 1 .366-.277z" fill="#4E6D8C"/><path d="M255.133 144.44c.041.186.061.376.06.566a3.165 3.165 0 0 1-.129.773v.05l-1.641-.575a1.619 1.619 0 0 0-.287-.09l-.811-.218a2.311 2.311 0 0 1-.623-.258h-.05a4.189 4.189 0 0 1-1.789-1.686c-.438.07-.886.05-1.316-.059l-.197-.06a1.36 1.36 0 0 1-.604-.347.64.64 0 0 1-.138-.664l2.393-.199a4.593 4.593 0 0 1 1.375 0 4.667 4.667 0 0 1 2.225 1.676l.089.08c.169.153.347.295.534.426.283.225.587.421.909.585z" fill="#F9CFB3"/><path d="M250.189 143.915a.654.654 0 0 1 .227.387c0 .148-.089.327-.237.297a.71.71 0 0 1 .415.248c.089.139 0 .387-.168.367a.466.466 0 0 1 .534.307.383.383 0 0 1-.063.315.37.37 0 0 1-.283.152.28.28 0 0 1 .196.115c.023.031.04.067.049.105a.307.307 0 0 1 .002.117.465.465 0 0 1-.326.317c-.157.03-.318.03-.475 0a3.38 3.38 0 0 1-1.75-.436.408.408 0 0 1-.178-.189.18.18 0 0 1 .079-.228 1.253 1.253 0 0 1-.593-.406.432.432 0 0 1-.071-.341.446.446 0 0 1 .199-.284.874.874 0 0 1-.425-.496c-.059-.218.119-.486.336-.456a.82.82 0 0 1-.178-.923c.208-.466.366-.267.643-.049.613.516 1.483.535 2.067 1.081z" fill="#F9CFB3"/><path d="M275.584 168.848a4.441 4.441 0 0 0-1.108-3.561 16.42 16.42 0 0 0-2.541.407c-1.504.367-3.145.992-3.738 1.983-1.266 2.083-.455 2.728.524 3.134 1.473.605 5.083-2.538 6.863-1.963zM112.555 253.515a.908.908 0 0 1-.346-.119.931.931 0 0 1-.445-.943.99.99 0 0 1 1.058-.803l5.083.734a.991.991 0 0 1 .801 1.061.933.933 0 0 1-1.058.794l-5.093-.724z" fill="#E9C2B0"/><path d="M112.664 250.847l3.649 2.4 2.284 2.618c.198.268 1.266 1.518.94 2.4-.218.585-1.8 3.749-2.779 2.975-.643-.485-5.36-5.256-5.36-5.256-.356-.278-1.661-.714-1.799-.992l-.91-2.142 3.975-2.003z" fill="#E9C2B0"/><path d="M113.218 248.467a4.232 4.232 0 0 1-.544 5.95 4.198 4.198 0 0 1-4.662.473 4.214 4.214 0 0 1-1.271-1.048l-4.47-6.942a4.237 4.237 0 0 1 .534-5.951 4.203 4.203 0 0 1 5.933.575l4.48 6.943z" fill="#FDFFFE"/><path d="M101.49 233.739c.108 2.073 3.787 2.41 6.586 2.539.319-.322.598-.682.83-1.071l-.128-4.126-7.358-.218-.108 2.727c.062.045.122.095.178.149z" fill="#DBB3A0"/><path d="M100.165 227.927c3.639 3.422 4.944 3.293 8.277.675 3.332-2.619 4.519-6.13 3.411-11.178-1.177-5.355-7.674-6.367-11.629-3.63-7.545 5.217-4.569 9.898-.059 14.133z" fill="#95A5A6"/><path d="M113.594 223.93a2.984 2.984 0 0 0-.732-.991c-.257-.239-.584-.457-.574-.992a7.95 7.95 0 0 1 .198-.992 3.78 3.78 0 0 0-.386-1.716 12.569 12.569 0 0 1-.178-1.408c-.069-.466-.207-.903-.534-1.041h-.069c-1.127 1.725-2.63 3.183-3.055 5.365a13.856 13.856 0 0 0-.188 2.083c0 .674-.208 1.448-.208 2.092 0 .407.237.784-.109 1.28-.148.218-.811.337-.821.248a6.6 6.6 0 0 0-.237-1.587c-.158-.456-.455-.803-.88-.813a1.629 1.629 0 0 0-1.305.991 3.036 3.036 0 0 0-.178 2.103c.188.873.672 1.666 1.572 1.279a2.654 2.654 0 0 0-.593 1.389.994.994 0 0 1-.119.347.527.527 0 0 1-.198.168l-.168.119c.19.183.439.292.702.308.327 0 .287.188 1.444.446.39.014.778-.057 1.137-.208l2.502-.734c.235-.055.457-.156.653-.297.464-.46.804-1.03.989-1.657.043-.105.073-.215.089-.327 0-.426-.386-.516-.287-.992.083-.22.179-.435.287-.644.08-.264.055-.548-.07-.794a.895.895 0 0 0 .347-.694 1.986 1.986 0 0 1 .83-1.835.475.475 0 0 0 .139-.496z" fill="#F2C1A9"/><path d="M93.766 233.6a4.793 4.793 0 0 1 1.871-2.995 4.77 4.77 0 0 1 3.41-.893 4.625 4.625 0 0 0-.227 2.688 3.966 3.966 0 0 0-1.405 2.777c-.069 2.866 0 5.712.12 8.589a4.51 4.51 0 0 0 .91 2.383 4.488 4.488 0 0 0 2.056 1.504l-.623 2.896a4.804 4.804 0 0 1-1.99 3.081 4.766 4.766 0 0 1-3.578.767 4.779 4.779 0 0 1-3.071-1.995 4.798 4.798 0 0 1-.766-3.588l3.293-15.214z" fill="#9C3E00"/><path d="M91.067 252.176a4.813 4.813 0 0 1 1.483-6.397 4.603 4.603 0 0 0 1.572 2.162 3.978 3.978 0 0 0 .732 3.025c1.81 2.221 3.738 4.314 5.667 6.436a4.466 4.466 0 0 0 4.806.992l1.404 2.608a4.817 4.817 0 0 1 .355 3.556 4.8 4.8 0 0 1-2.193 2.816 4.772 4.772 0 0 1-3.525.517 4.787 4.787 0 0 1-2.904-2.069l-7.397-13.646z" fill="#9C3E00"/><path d="M101.302 230.535a26.871 26.871 0 0 0-2.779-.991c-1.681-.209-4.015 1.14-4.015 4.215v11.326c0 7.061 3.778-9.105 5.251-12.04a1.863 1.863 0 0 1 1.572-.903l-.029-1.607z" fill="#732E00"/><path d="M95.645 219.725c.178-2.142 5.251-2.638 5.251-2.638s.099-.198.149-.287a8.614 8.614 0 0 1 2.284-3.472c1.473-1.15 3.511-.991 5.231-.615 1.721.377 3.501.615 4.46 2.172.663 1.081.762 3.491-.643 4.106a5.067 5.067 0 0 1-2.235-.188c-1.374-.228-.534 2.578-.988 2.975a42.403 42.403 0 0 0-3.145 5.663l-.485.992c-.652 1.349 1.147 3.441.989 3.818-.227.754-4.806.189-5.933-1.775-.208-.208-6.2-5.792-4.935-10.751z" fill="#95A5A6"/><path d="M112.862 222.919c-.257-.238-.584-.457-.574-.992a7.95 7.95 0 0 1 .198-.992 3.78 3.78 0 0 0-.386-1.716 1.804 1.804 0 0 1 0-.208c-1.166.248-2.066-.922-2.828.179a23.016 23.016 0 0 0-.989 2.906 14.096 14.096 0 0 0-.188 2.082c0 .675-.207 1.448-.207 2.093 0 .406.237.783-.109 1.279-.148.218-.811.337-.821.248a6.607 6.607 0 0 0-.237-1.587c-.158-.456-.455-.803-.88-.813a1.626 1.626 0 0 0-1.306.992 3.045 3.045 0 0 0-.178 2.102c.188.873.673 1.667 1.573 1.28a1.797 1.797 0 0 0-.277.387l6.596-.367.059-.139c.044-.105.073-.215.089-.328 0-.426-.386-.515-.287-.991.084-.221.179-.436.287-.645a1.06 1.06 0 0 0-.069-.793.896.896 0 0 0 .346-.695 1.986 1.986 0 0 1 .831-1.834.476.476 0 0 0 .108-.447 2.956 2.956 0 0 0-.751-1.001z" fill="#F2C1A9"/><path d="M100.253 322.095s-.9 3.779.376 5.038c.356.347 1.8.377 3.451-.079 1.078-.298 2.216-.992 3.293-1.24 3.155-.625 3.897-2.053 5.123-3.888 2.601-3.897-2.443-2.489-5.716-1.12a16.825 16.825 0 0 1-6.527 1.289z" fill="#451C00"/><path d="M105.168 324.713a12.975 12.975 0 0 1-5.34-1.884l-3.105-58.445 11.61 1.409 3.046 57.234a9.746 9.746 0 0 1-6.211 1.686z" fill="#15191C"/><path d="M110.578 328.046s-.9 3.788.375 5.038c.356.357 1.8.387 3.452-.07 1.077-.297 2.215-.991 3.293-1.239 3.154-.625 3.896-2.053 5.112-3.888 2.611-3.898-2.433-2.499-5.706-1.121a16.703 16.703 0 0 1-6.526 1.28z" fill="#451C00"/><path d="M116.61 330.922a12.186 12.186 0 0 0 5.132-2.49l-1.602-44.173.791-3.332-13.142-3.471 2.512 52.167a9.262 9.262 0 0 0 6.309 1.299z" fill="#1C2326"/><path d="M111.22 238.906c-.524-.714-4.707-1.984-8.148-1.746s-5.33-2.777-5.142.675c.188 3.451 1.592 19.19 5.033 18.992 3.442-.198 10.275-15.114 8.257-17.921z" fill="#DCDCDC"/><path d="M111.22 238.906c-.524-.714-4.707-1.984-8.148-1.746s-5.33-2.777-5.142.675c.188 3.451 1.592 19.19 5.033 18.992 3.442-.198 10.275-15.114 8.257-17.921z" fill="#DCDCDC"/><path d="M111.191 236.089c0-.446-1.662-3.163-1.978-2.836a6.247 6.247 0 0 1-5.933 1.091c-1.85-.645-1.86-1.289-1.86-2.708a2.298 2.298 0 0 0-1.977 2.321c0 1.131-.673 2.043 4.816 4.691 1.473.704 3.401 0 4.815-.783 1.148-.675 3.323-.695 2.117-1.776z" fill="#ECF0F1"/><path d="M119.883 240.146a4.832 4.832 0 0 0-1.286-1.795 2.453 2.453 0 0 0-1.068-.209 20.137 20.137 0 0 0-2.551-.387c.196.775.531 1.508.989 2.163a7.92 7.92 0 0 0 1.701 1.983 3.432 3.432 0 0 0 1.632.932c.583.1 1.493-.148 1.602-.833.108-.684-.445-.992-.752-1.368a3.644 3.644 0 0 1-.267-.486z" fill="#E9C2B0"/><path d="M121.732 283.912l-1.542-33.125c-.782-6.03-.732-9.273-2.68-11.574-1.405-.634-5.627-3.55-6.705-3.967 0 0-2.106 2.638-7.011 1.905-4.213-.635-4.816-3.134-4.242-4.384-4.253-4.85-5.024 9.332-5.044 12.318 0 5.633.989 26.777 1.622 36.169 0 0-.178 6.179 11.619 7.399 13.805 1.438 13.983-4.741 13.983-4.741z" fill="#732E00"/><path d="M121.406 241.127v.07l7.268 13.756a4.217 4.217 0 0 1-1.004 5.866 4.19 4.19 0 0 1-5.849-1.007l-7.11-13.567c1.602-2.499 3.649-4.582 6.695-5.118z" fill="#632800"/><path d="M128.259 254.883a4.366 4.366 0 0 1 .546 4.819 4.336 4.336 0 0 1-5.87 1.856 4.359 4.359 0 0 1-1.321-1.071l-9.504-14.768a4.375 4.375 0 0 1 .515-6.159 4.348 4.348 0 0 1 4.808-.522c.506.265.956.628 1.323 1.068l9.503 14.777z" fill="#9C3E00"/><path d="M55.061 219.963a.993.993 0 0 1-.801-1.061.99.99 0 0 1 1.058-.803l5.093.724a.987.987 0 0 1 .791 1.071.933.933 0 0 1-1.058.793l-5.083-.724z" fill="#E9C2B0"/><path d="M55.16 217.295l3.66 2.4 2.274 2.609c.197.277 1.265 1.527.94 2.41-.209.585-1.8 3.749-2.77 2.975-.643-.496-5.37-5.256-5.37-5.256-.355-.288-1.66-.714-1.79-.992l-.919-2.152 3.975-1.994z" fill="#E9C2B0"/><path d="M55.714 214.915a4.232 4.232 0 0 1-.534 5.951 4.215 4.215 0 0 1-3.086.946 4.215 4.215 0 0 1-2.847-1.521l-4.48-6.943a4.23 4.23 0 0 1 .544-5.95 4.191 4.191 0 0 1 3.086-.946 4.196 4.196 0 0 1 2.847 1.521l4.47 6.942z" fill="#FDFFFE"/><path d="M43.986 200.187c.108 2.063 3.787 2.41 6.586 2.539a5.59 5.59 0 0 0 .84-1.071l-.158-4.155-7.367-.228-.099 2.727s.198.169.198.188z" fill="#E9C2B0"/><path d="M42.67 194.386c3.64 3.411 4.945 3.282 8.268.674 3.322-2.608 4.519-6.129 3.411-11.177-1.176-5.356-7.673-6.367-11.62-3.64-7.544 5.217-4.568 9.898-.059 14.143z" fill="#2B0D04"/><path d="M56.1 190.419a3.09 3.09 0 0 0-.732-.992 1.158 1.158 0 0 1-.584-.992c0-.317.149-.684.198-.992a3.802 3.802 0 0 0-.386-1.715c-.108-.427-.108-.943-.177-1.409-.07-.466-.208-.902-.525-1.041h-.079c-1.117 1.716-2.62 3.183-3.045 5.365a13.947 13.947 0 0 0-.198 2.083c0 .674-.198 1.448-.198 2.093 0 .396.237.783-.109 1.269-.158.228-.82.347-.82.258a6.428 6.428 0 0 0-.248-1.587c-.158-.456-.445-.803-.87-.823a1.672 1.672 0 0 0-1.315.992 3.1 3.1 0 0 0-.178 2.102c.188.883.672 1.676 1.572 1.29a2.63 2.63 0 0 0-.593 1.378.845.845 0 0 1-.109.347.662.662 0 0 1-.198.179l-.168.109a1.1 1.1 0 0 0 .692.307c.337 0 .287.189 1.444.447.394.022.787-.049 1.147-.209l2.492-.724c.237-.058.461-.159.663-.297a3.76 3.76 0 0 0 .989-1.656 1.35 1.35 0 0 0 .089-.328c0-.426-.386-.525-.287-.991.087-.221.185-.436.297-.645a.996.996 0 0 0-.08-.794.913.913 0 0 0 .356-.694 2.869 2.869 0 0 1 .06-.763 3.38 3.38 0 0 1 .771-1.081.491.491 0 0 0 .129-.486z" fill="#F9CFB3"/><path d="M36.322 200.673a4.806 4.806 0 0 1 1.396-3.244 4.781 4.781 0 0 1 3.232-1.407 4.656 4.656 0 0 0 .178 2.698 3.898 3.898 0 0 0-.989 2.975c.356 2.846.89 5.643 1.414 8.46a4.47 4.47 0 0 0 3.56 3.392l-.178 2.975a4.808 4.808 0 0 1-1.503 3.352 4.782 4.782 0 0 1-6.769-.203 4.813 4.813 0 0 1-1.3-3.437l.959-15.561z" fill="#174361"/><path d="M43.808 196.974a25.57 25.57 0 0 0-2.779-.992c-1.681-.208-4.025 1.141-4.025 4.215v11.326c0 7.062 3.778-9.104 5.261-12.04a1.857 1.857 0 0 1 1.572-.912l-.03-1.597z" fill="#1A4B6C"/><path d="M38.142 186.164c.177-2.142 5.25-2.628 5.25-2.628.356-.318 2.136-8.619 10.997-2.44 1.84 1.279 1.295 4.284 1.295 4.284s-.425.308-3.045-.128c-1.365-.229-.534 2.578-.99 2.975a42.06 42.06 0 0 0-3.134 5.663c-.168.327-.336.664-.485.992-.662 1.348 1.138 3.431.99 3.808-.238.754-4.817.198-5.934-1.765-.208-.209-6.21-5.792-4.944-10.761z" fill="#2B0D04"/><path d="M55.378 189.357a1.157 1.157 0 0 1-.584-.991c0-.318.149-.685.198-.992a3.809 3.809 0 0 0-.386-1.716 1.29 1.29 0 0 1 0-.208c-1.157.248-2.056-.913-2.818.178a23.164 23.164 0 0 0-.989 2.916 13.921 13.921 0 0 0-.198 2.083c0 .674-.197 1.448-.197 2.092 0 .397.237.784-.11 1.27-.157.228-.82.347-.82.258a6.426 6.426 0 0 0-.247-1.587c-.158-.456-.445-.803-.87-.823a1.661 1.661 0 0 0-1.316.992 3.101 3.101 0 0 0-.178 2.102c.188.883.673 1.676 1.573 1.289a1.617 1.617 0 0 0-.277.387l6.606-.377v-.129a1.33 1.33 0 0 0 .089-.327c0-.426-.386-.526-.287-.992.087-.22.185-.435.297-.644a.996.996 0 0 0-.08-.794.913.913 0 0 0 .356-.694 2.875 2.875 0 0 1 .06-.764c.183-.407.445-.775.771-1.081a.481.481 0 0 0 .109-.446 3.105 3.105 0 0 0-.702-1.002z" fill="#F9CFB3"/><path d="M42.76 288.534s-.9 3.788.375 5.038c.356.357 1.8.387 3.442-.069 1.078-.298 2.225-.992 3.293-1.24 3.154-.635 3.896-2.053 5.122-3.888 2.6-3.898-2.433-2.499-5.706-1.131a16.6 16.6 0 0 1-6.526 1.29z" fill="#231F20"/><path d="M47.664 291.162a12.942 12.942 0 0 1-5.33-1.884l-3.115-58.445 11.62 1.408 3.036 57.225a9.756 9.756 0 0 1-6.21 1.696z" fill="#0D212F"/><path d="M53.074 294.494s-.89 3.789.375 5.038c.356.357 1.8.387 3.452-.069 1.077-.298 2.215-.992 3.293-1.24 3.154-.634 3.896-2.053 5.122-3.887 2.6-3.898-2.443-2.5-5.706-1.131a16.668 16.668 0 0 1-6.536 1.289z" fill="#231F20"/><path d="M59.106 297.37a12.309 12.309 0 0 0 5.172-2.489l-1.602-44.183.8-3.332-13.24-3.462 2.511 52.167a9.274 9.274 0 0 0 6.359 1.299z" fill="#113045"/><path d="M53.716 205.355c-.524-.724-4.697-1.984-8.148-1.746-3.451.238-5.33-2.787-5.132.674.197 3.462 1.582 19.191 5.023 18.993 3.441-.199 10.285-15.125 8.257-17.921z" fill="#DCDCDC"/><path d="M53.716 205.355c-.524-.724-4.697-1.984-8.148-1.746-3.451.238-5.33-2.787-5.132.674.197 3.462 1.582 19.191 5.023 18.993 3.441-.199 10.285-15.125 8.257-17.921z" fill="#DCDCDC"/><path d="M53.687 202.528c0-.436-1.652-3.164-1.978-2.836a6.233 6.233 0 0 1-5.933 1.091c-1.85-.635-1.86-1.28-1.86-2.698a2.288 2.288 0 0 0-1.427.784c-.365.428-.56.974-.55 1.537 0 1.12-.683 2.033 4.806 4.681 1.473.714 3.402 0 4.816-.774 1.157-.674 3.342-.704 2.126-1.785z" fill="#DEF3EE"/><path d="M64.278 250.351l-1.592-33.155c-.772-6.04-.722-9.283-2.67-11.584-1.414-.634-5.637-3.55-6.705-3.967 0 0-2.106 2.648-7.011 1.905-4.213-.635-4.826-3.124-4.252-4.374-4.253-4.86-5.014 9.322-5.044 12.318 0 5.633.99 26.777 1.622 36.159 0 0-.178 6.179 11.62 7.399 13.804 1.488 14.032-4.701 14.032-4.701z" fill="#1A4B6C"/><path d="M67.551 243.607a.993.993 0 0 1-.653-1.16.986.986 0 0 1 1.157-.645L73 243.19a.993.993 0 0 1 .643 1.161.933.933 0 0 1-1.157.654l-4.935-1.398z" fill="#E9C2B0"/><path d="M68.006 240.999l3.303 2.866 1.918 2.896c.158.287 1.048 1.676.613 2.499-.286.555-2.274 3.481-3.144 2.618-.574-.575-4.628-5.95-4.628-5.95-.307-.328-1.543-.933-1.642-1.27l-.623-2.241 4.203-1.418z" fill="#E9C2B0"/><path d="M63.061 226.122a4.385 4.385 0 0 1-.689 3.271 4.362 4.362 0 0 1-2.791 1.827 4.33 4.33 0 0 1-3.257-.696 4.363 4.363 0 0 1-1.807-2.805l-.988-17.554a4.394 4.394 0 0 1 .685-3.272A4.371 4.371 0 0 1 57 205.057a4.35 4.35 0 0 1 3.26.703 4.374 4.374 0 0 1 1.813 2.808l.988 17.554z" fill="#174361"/><path d="M68.866 238.698a4.218 4.218 0 0 1 .547 3.184 4.225 4.225 0 0 1-1.862 2.637 4.203 4.203 0 0 1-5.795-1.358l-6.487-14.133a4.223 4.223 0 0 1 1.315-5.822c.468-.295.99-.494 1.536-.585a4.184 4.184 0 0 1 4.26 1.934l6.486 14.143z" fill="#174361"/><path d="M301.779 255.796l-.049-20.629a.555.555 0 0 0 .306.446l.05 20.629a.565.565 0 0 1-.307-.446z" fill="#401D06"/><path d="M303.925 235.167l.049 20.629a.547.547 0 0 1-.336.456 1.712 1.712 0 0 1-1.552 0l-.05-20.629a1.72 1.72 0 0 0 1.553 0 .547.547 0 0 0 .23-.182.548.548 0 0 0 .106-.274z" fill="#78360C"/><path d="M302.649 235.782a1.48 1.48 0 0 1-.613-.169l.05 20.629c.176.09.367.147.563.169v-20.629z" fill="#401D06"/><path d="M308.533 222.353l1.157.675c-1.384-.804-3.293-.685-5.399.535l-1.157-.674c2.067-1.22 3.975-1.339 5.399-.536z" fill="#ACB1B5"/><path d="M298.902 241.574l-1.157-.675c-1.365-.793-2.206-2.479-2.216-4.879a16.742 16.742 0 0 1 2.211-7.476 16.684 16.684 0 0 1 5.354-5.655l1.157.674a16.698 16.698 0 0 0-5.365 5.652 16.73 16.73 0 0 0-2.219 7.479c0 2.4.88 4.086 2.235 4.88z" fill="#BDC3C7"/><path d="M296.667 236.694v-.168l-1.157-.675v.169c0 2.4.85 4.086 2.215 4.879l1.157.675c-1.335-.794-2.215-2.48-2.215-4.88z" fill="#7F8C8D"/><path d="M304.251 223.563c4.193-2.429 7.595-.476 7.615 4.344a16.756 16.756 0 0 1-2.212 7.48 16.709 16.709 0 0 1-5.353 5.661c-4.193 2.42-7.595.476-7.615-4.354a16.742 16.742 0 0 1 2.211-7.476 16.693 16.693 0 0 1 5.354-5.655z" fill="#ECF0F1"/><path d="M311.866 227.907a16.913 16.913 0 0 1-2.225 7.498 16.853 16.853 0 0 1-5.36 5.683c-4.193 2.43-7.595.456-7.595-4.394.147-2.638.91-5.204 2.228-7.492a16.837 16.837 0 0 1 5.357-5.678c4.193-2.43 7.595-.466 7.595 4.383z" fill="#ECF0F1"/><path d="M311.154 228.314a15.296 15.296 0 0 1-2.011 6.804 15.248 15.248 0 0 1-4.862 5.157c-3.807 2.201-6.922.416-6.922-3.968a15.276 15.276 0 0 1 2.011-6.799 15.211 15.211 0 0 1 4.862-5.151c3.846-2.202 6.922-.437 6.922 3.957z" fill="#C0392B"/><path d="M310.244 228.849a13.242 13.242 0 0 1-1.732 5.893 13.194 13.194 0 0 1-4.201 4.471c-3.303 1.905-5.934.367-5.934-3.451a13.273 13.273 0 0 1 5.934-10.374c3.233-1.904 5.933-.357 5.933 3.461z" fill="#ECF0F1"/><path d="M301.611 231.577c.88-.506 1.434-.387 1.434.297a1.99 1.99 0 0 1-.672 1.379c.494-.169.801.099.801.684a2.656 2.656 0 0 1-1.494 2.113l-1.908 1.11v-4.512l1.839-1.071zm-.86 2.301l.801-.466a.894.894 0 0 0 .475-.744c0-.288-.178-.347-.475-.179l-.801.456v.933zm0 1.825l.801-.467a.983.983 0 0 0 .603-.853c0-.297-.227-.357-.603-.138l-.801.456v1.002zM303.777 234.85v-4.513l.989-.575v4.512l-.989.576zM307.218 228.344c1.226-.714 2.077-.288 2.077 1.051a4.243 4.243 0 0 1-2.116 3.481l-1.632.992v-4.513l1.671-1.011zm-.682 3.967l.702-.417a2.29 2.29 0 0 0 1.048-1.934c0-.803-.455-1.081-1.088-.724l-.662.387v2.688z" fill="#C0392B"/><path d="M347.149 319.923s1.128 3.67-.049 4.959c-.326.377-1.75.496-3.402.149-1.088-.219-2.254-.863-3.322-.992-3.155-.417-3.956-1.775-5.291-3.501-2.818-3.679 2.235-2.618 5.548-1.478a16.575 16.575 0 0 0 6.516.863z" fill="#0B0C0D"/><path d="M343.975 323.751v-.714h2.967v-.069l.603.992-.307 1.507s-1.671 1.2-1.977 1.121l-.168-.05-2.611-1.487.119-.278a41.147 41.147 0 0 1-1.622-.575l-.742-.278-.119-.069 3.857-.1z" fill="#0B0C0D"/><path d="M342.482 322.819a12.704 12.704 0 0 0 5.132-2.202l-.672-57.8-11.353 2.133.663 56.58a9.57 9.57 0 0 0 6.23 1.289z" fill="#15191C"/><path d="M337.023 325.804s1.128 3.67-.049 4.959c-.326.367-1.741.486-3.402.149-1.078-.228-2.255-.873-3.323-.992-3.144-.416-3.955-1.775-5.29-3.501-2.819-3.679 2.245-2.618 5.547-1.478a16.38 16.38 0 0 0 6.517.863z" fill="#0B0C0D"/><path d="M333.859 329.632v-.714h2.966v-.069l.604.992-.297 1.517s-1.681 1.19-2.027 1.111l-.168-.05-2.611-1.477.109-.288a47.8 47.8 0 0 1-1.622-.575l-.732-.278-.118-.059 3.896-.11z" fill="#0B0C0D"/><path d="M331.278 329.018a12.06 12.06 0 0 1-5.222-2.123l-1.246-43.637-.989-3.234 12.787-4.254.86 51.571a9.118 9.118 0 0 1-6.19 1.677z" fill="#1C2326"/><path d="M329.3 239.283c0-3.412 3.669-6.685 7.239-8.331 1.364-.625 3.115.208 4.4.873.816.382 1.51.984 2.004 1.739.494.755.769 1.633.795 2.535 0 3.422-.336 19.012-3.748 19.042-3.412.03-10.69-12.447-10.69-15.858z" fill="#fff"/><path d="M330.694 238.023c.465-.744 4.51-2.211 7.912-2.241 3.401-.03 5.073-3.085 5.102.327.03 3.412-.336 19.012-3.748 19.042-3.411.03-11.075-14.242-9.266-17.128z" fill="#DCDCDC"/><path d="M339.683 231.864c0 2.063-3.619 2.648-6.388 2.976a5.082 5.082 0 0 1-.9-.992l-.109-4.146 7.308-.704.168 2.837s-.079.01-.079.029z" fill="#E9C2B0"/><path d="M339.673 225.13a4.816 4.816 0 0 1 1.593-1.983c.563-.417 1.206-.744 1.433-1.458.505-1.577 1.098-3.709.178-5.247-1.681-2.816-4.618-3.907-7.278-5.524a.247.247 0 0 1-.109-.119 8.257 8.257 0 0 0-2.966.486 6.659 6.659 0 0 0-2.423 1.528 6.081 6.081 0 0 0-1.79 3.491c-.781 5.097.673 8.509 4.114 10.909 2.175 1.508 3.52 2.083 5.063 1.369a8.689 8.689 0 0 0 2.344-1.776 1.811 1.811 0 0 1-.159-1.676z" fill="#F9CFB3"/><path d="M342.383 219.785c.297-1.042.831-2.847.218-3.868-.851-1.418-2.047-1.984-3.382-2.847a18.798 18.798 0 0 0-3.956-2.112.217.217 0 0 1-.093-.071.222.222 0 0 1-.045-.107 8.054 8.054 0 0 0-2.67.485 7.062 7.062 0 0 0-1.978 1.171 26.486 26.486 0 0 1 2.818 3.63 24.258 24.258 0 0 1 2.967 6.327 31.023 31.023 0 0 0 1.444 3.967c.454-.416.988-.803 1.414-1.17.395-.784.761-1.557 1.157-2.212a1.614 1.614 0 0 1 1.127-.724c.307-.853.752-1.597.979-2.469z" fill="#F9CFB3"/><path d="M330.546 235.236c0-.436 1.434-3.223 1.81-2.925 1.434 1.11 5.577.833 6.576.297.999-.535.781-1.844.781-1.844s5.726 4.958-2.116 6.545a7.884 7.884 0 0 1-4.796-.466c-1.236-.585-3.382-.466-2.255-1.607z" fill="#fff"/><path d="M344.301 276.285c-5.409 3.085-12.608 3.254-17.8-.476a14.104 14.104 0 0 1-3.134-3.074l-.732-22.384c.742-11.624 6.21-14.877 8.336-15.819 0 0 2.176 2.43 6.922 1.339 4.747-1.091 3.026-3.967 3.026-3.967 6.359 0 6.418 8.281 6.636 11.227.405 5.554.85 17.385.811 26.649-.514 2.152-1.78 5.206-4.065 6.505z" fill="#1A4B6C"/><path d="M327.006 222.889c.143-.395.365-.756.652-1.061a1.15 1.15 0 0 0 .524-.992c0-.317-.197-.674-.267-.992a3.813 3.813 0 0 1 .277-1.735c.052-.468.079-.938.079-1.409 0-.466.149-.912.465-1.071h.069c1.227 1.637 2.819 2.976 3.383 5.138.158.678.267 1.368.326 2.062.079.675.296 1.419.336 2.063 0 .407-.188.804.188 1.27.168.208.831.287.831.188a6.716 6.716 0 0 1 .138-1.587c.129-.466.405-.833.821-.872a1.66 1.66 0 0 1 1.365.892c.355.632.467 1.373.316 2.083-.129.883-.564 1.706-1.483 1.378.352.371.589.836.682 1.339.024.119.067.233.128.338a.57.57 0 0 0 .218.158l.168.099a1.147 1.147 0 0 1-.672.357c-.327 0-.277.199-1.405.536a2.648 2.648 0 0 1-1.147-.139l-2.531-.565a1.98 1.98 0 0 1-.673-.248 3.654 3.654 0 0 1-1.117-1.587.997.997 0 0 1-.109-.307c-.079-.427.346-.546.218-.992a6.187 6.187 0 0 0-.327-.625 1 1 0 0 1 0-.793c-.207-.07-.366-.417-.395-.675a3.285 3.285 0 0 0-.109-.744 3.17 3.17 0 0 0-.841-.991.47.47 0 0 1-.108-.516z" fill="#F9CFB3"/><path d="M344.588 217.533c-.316-2.112-5.389-2.271-5.389-2.271-.267-.208-1.484-4.304-5.133-4.363.057.46-.004.928-.178 1.358a8.74 8.74 0 0 1-2.67 3.075 4.13 4.13 0 0 0-.613.674h.693v3.313h-.633c.169.392.364.773.583 1.14.277.476 2.097 3.035 3.491 5.425l.544.992c.741 1.299-.92 3.491-.781 3.858.286.734 4.796-.119 5.785-2.142.276-.248 5.883-6.199 4.301-11.059z" fill="#728D96"/><path d="M328.153 221.778c.247-.248.564-.486.514-.992a8.287 8.287 0 0 0-.257-.991 3.801 3.801 0 0 1 .267-1.736 1.444 1.444 0 0 0 0-.208c1.167.168 1.978-.992 2.818 0 .447.919.834 1.866 1.157 2.836.159.679.268 1.368.327 2.063.079.665.296 1.418.326 2.063 0 .407-.178.803.198 1.269.168.209.83.288.83.189a6.765 6.765 0 0 1 .139-1.587c.128-.466.395-.833.821-.873a1.634 1.634 0 0 1 1.364.893c.347.631.459 1.366.317 2.073-.129.892-.564 1.715-1.484 1.388.115.109.214.232.297.367l-6.586.06-.059-.139a1.245 1.245 0 0 1-.119-.318c-.069-.416.356-.535.228-.991a6.082 6.082 0 0 0-.327-.625 1 1 0 0 1 0-.794c-.207-.069-.366-.416-.395-.674a3.342 3.342 0 0 0-.109-.744 3.174 3.174 0 0 0-.841-.992.468.468 0 0 1-.128-.436c.148-.415.388-.792.702-1.101z" fill="#F9CFB3"/><path d="M340.534 217.871a13.584 13.584 0 0 0-3.956-4.8 11.607 11.607 0 0 0-1.978-1.419c-.143.429-.35.833-.613 1.2-.633.913-1.978 1.22-2.759 2.123a2.767 2.767 0 0 0-.524 1.537c.006.56.178 1.105.495 1.567a15.343 15.343 0 0 1 1.829 4.136l8.692-.992a23.909 23.909 0 0 0-1.186-3.352z" fill="#728D96"/><path d="M348.484 232.797c-.662-2.539-2.323-4.632-4.944-4.523a8.965 8.965 0 0 0-2.304.685c.217.168.989.188.662.406a19.71 19.71 0 0 0-2.808 2.866 4.58 4.58 0 0 0-.069.992l2.521 14.321a4.742 4.742 0 0 0 1.529 3.284 4.714 4.714 0 0 0 6.671-.294 4.742 4.742 0 0 0 1.234-3.406l-2.492-14.331z" fill="#1C2326"/><path d="M343.718 236.099a4.88 4.88 0 0 0-.795-2.535 4.855 4.855 0 0 0-2.004-1.739 10.938 10.938 0 0 0-2.403-.992 3.947 3.947 0 0 1-3.49.883c-3.036 1.785-5.776 4.611-5.746 7.547 0 3.412 7.288 15.868 10.69 15.868 3.402 0 3.778-15.61 3.748-19.032z" fill="#fff"/><path d="M330.694 238.023c.465-.744 4.51-2.211 7.912-2.241 3.401-.03 5.073-3.085 5.102.327.03 3.412-.336 19.012-3.748 19.042-3.411.03-11.075-14.242-9.266-17.128z" fill="#DCDCDC"/><path d="M335.886 231.369a5.25 5.25 0 0 1-3.59-.457l.079 2.896c.255.369.558.703.9.992 2.769-.298 6.408-.883 6.389-2.975.047-.061.1-.118.158-.169l-.218-1.755a8.394 8.394 0 0 1-3.718 1.468z" fill="#E9C2B0"/><path d="M339.644 211.94a8.44 8.44 0 0 0-5.578-1.071c.057.47-.004.947-.178 1.388a5.206 5.206 0 0 1-1.058 1.587c.012.222.052.442.119.655.297.882.989 1.12 1.553 1.765a5.871 5.871 0 0 1 1.582 3.828 14.62 14.62 0 0 1-.9 4.959c.262.405.567.781.91 1.121a4.908 4.908 0 0 1 1.256 2.439 10.33 10.33 0 0 0 3.263-2.638c4.222-4.482 6.873-9.332-.969-14.033z" fill="#728D96"/><path d="M330.546 235.236c0-.436 1.513-3.312 1.81-2.925.989 1.309 3.876 1.765 6.022.724 1.661-.814 1.256-3.243 1.256-3.243 2.334 0 5.805 5.95-2.037 7.517a7.884 7.884 0 0 1-4.796-.466c-1.236-.585-3.382-.466-2.255-1.607z" fill="#fff"/><path d="M323.367 283.396l-.782-33.095c.337-5.206-.504-9.005 1.326-11.167 2.363-1.567 5.715-3.967 6.922-4.741 0 0 2.264 2.529 7.031 1.429 5.112-1.181 3.362-4.503 3.362-4.503 6.359 0 7.14 3.967 7.249 10.81.079 5.554 0 27.77-.06 37.023 0 0 1.325 5.573-9.691 7.438-14.003 2.38-15.357-3.194-15.357-3.194z" fill="#232C31"/><path d="M339.634 229.554a15.375 15.375 0 0 1 3.955-1.101 3.563 3.563 0 0 1 3.303 1.795c1.118 1.517 1.672 4.572 1.672 10.969 0 7.051-5.766-8.192-7.279-9.918a4.798 4.798 0 0 0-1.592-1.101l-.059-.644z" fill="#232C31"/><path d="M307.703 249.766c-.297-.466-.594-.992-.91-1.409-.593-.892-1.474-1.547-2.087-2.429a6.655 6.655 0 0 0-.771-1.111v2.132c.168.198.336.387.465.556.128.168.346.624.534.912l-2.631-1.329c-.514-.258-3.016-1.617-3.303-.992-.148.318.267.595.475.744.92.655 1.889 1.239 2.898 1.746l-2.581-1.23c-.396-.189-1.978-.853-2.235-.209a.4.4 0 0 0-.002.269.4.4 0 0 0 .17.208c.789.535 1.639.974 2.531 1.309l-1.77-.635c-.257-.099-.771-.238-.989.059-.217.298.188.714.425.853a19.956 19.956 0 0 0 3.205 1.488c-.93-.069-3.6-1.17-3.264-.387.117.204.293.366.505.466 1.206.714 1.918 1.161 3.134 1.865a13.02 13.02 0 0 0 1.879.873c.673.238 1.197.426 1.859.694 1.182.478 2.417.811 3.679.992l1.098-3.144c0-.149-2.225-2.133-2.314-2.291z" fill="#F9CFB3"/><path d="M321.725 264.186a4.254 4.254 0 0 1-.712-.278l-14.784-6.942a4.536 4.536 0 0 1-1.107-.754 8.942 8.942 0 0 1 1.186-4.76 5.795 5.795 0 0 1 3.105-2.886c.249.069.491.162.722.277l14.774 6.943a4.52 4.52 0 0 1 .027 8.084 4.49 4.49 0 0 1-3.241.306l.03.01z" fill="#1C2326"/><path d="M327.698 261.191a4.737 4.737 0 0 1-2.411 2.703 4.715 4.715 0 0 1-3.611.203 4.73 4.73 0 0 1-2.696-2.419 4.754 4.754 0 0 1-.202-3.621l3.6-16.761a4.724 4.724 0 0 1 4.198-3.159 4.697 4.697 0 0 1 1.824.263 4.714 4.714 0 0 1 2.695 2.413 4.749 4.749 0 0 1 .203 3.617l-3.6 16.761z" fill="#1C2326"/><g style="mix-blend-mode:multiply" opacity=".7"><path d="M154.504 106.377V92.125l-6.418-3.73-2.967 1.727v5.157l-4.45-2.599-4.39 2.53v7.011l-4.727-2.747c-.989-.595-2.482-.337-4.391.773a11.81 11.81 0 0 0-4.489 4.473 11.95 11.95 0 0 0-1.167 3.055l-3.461-1.984-3.363 1.984v3.064l-2.64-1.537-9.375 5.435v2.916l-1.799-1.151a8.212 8.212 0 0 0-3.837 1.22 11.185 11.185 0 0 0-3.195 2.757 12.117 12.117 0 0 0-2.066 3.779 9.763 9.763 0 0 0-.277.912l-3.471-1.983-3.333 1.983v4.513l-3.896-2.271-3.362 1.983v7.181l-6.23-3.759-4.46 2.579-3.956 16.651 6.438 3.729 3.669-2.122.623-3.035 2.324-1.349 2.284 1.349 3.659-2.122-2.334-6.675 5.736 3.342a.605.605 0 0 1-.129-.089c.066.052.135.099.208.139.91.466 2.205.218 3.886-.764a10.612 10.612 0 0 0 3.956-3.828 9.808 9.808 0 0 0 1.355-5.117v-1.24l4.627 2.698-.118-.07c.989.665 2.442.456 4.302-.625a14.7 14.7 0 0 0 3.5-2.806v-3.263l-5.29-3.085.089-.238a4.464 4.464 0 0 1 1.859-2.191 4.75 4.75 0 0 1 1.463-.605c.287-.06.574-.09.861-.129v3.243l6.408 3.739 3.342-1.934v-6.576l5.666 3.303 3.363-1.984v-7.071l4.707 2.747h-.06c1.039.655 2.522.417 4.47-.714a11.633 11.633 0 0 0 4.47-4.453c.529-.954.919-1.979 1.157-3.045l3.481 1.984 2.967-1.716v-5.157l4.45 2.589 4.331-2.529zm-70.617 35.296v.655c.01-.208 0-.426 0-.655zm0 .863v.387c.07-.109.06-.258.05-.387h-.05zm.08.605c.017.104.04.207.069.308 0-.103.007-.206.02-.308h-.09zm.128.516c0 .089 0 .178.08.258a.446.446 0 0 0-.03-.258h-.05zm.168.446c.029.075.062.148.099.218a2.064 2.064 0 0 1-.05-.218h-.049zm.208.367l.118.189-.118-.189zm.247.318s.089.099.148.148c.06.05-.05-.139-.099-.139l-.049-.009zm3.174-3.353c.04.009.08.009.119 0a.267.267 0 0 1-.07 0h-.049zm.693-.01h.128-.128zm13.27-8.211l.159.049-.159-.049zm.96 0h.178-.178zm32.356-29.991c.119-.05.242-.094.366-.129-.111.037-.22.08-.326.129h-.04zm-.91.387c-.227.109-.464.238-.712.376.287-.138.524-.267.752-.376h-.04zm1.859-.655l-.326.079.326-.079zm-1.196.357c-.139 0-.287.119-.435.188.188-.069.336-.138.474-.188h-.039zm-2.967 12.417h.129-.129zm.87.03h.159-.159zM64.278 124.804l.109.069 6.418 3.739-.12-.07c.99.665 2.443.457 4.312-.624a14.868 14.868 0 0 0 3.491-2.807v-1.666l1.978 1.13 3.679-2.122.613-3.035 2.343-1.349 2.295 1.339 3.649-2.112-1.078-3.243 3.253 1.983 3.343-1.983v-3.967l3.48 2.033 3.788-2.202-3.619-4.116a8.045 8.045 0 0 0 2.086-5.048c0-1.388-.425-2.201-1.256-2.42.128.034.251.084.366.15L97 94.742c-.82-.476-2.215-.149-4.163.992l-4.064 2.35v7.25l-6.3-3.669-4.46 2.578-1.503 6.288-3.955-2.291a8.201 8.201 0 0 0-3.837 1.22 11.17 11.17 0 0 0-3.194 2.757 12.36 12.36 0 0 0-2.067 3.769 13.396 13.396 0 0 0-.722 4.324c.05 2.311.554 3.818 1.543 4.493zm10.077-5.366l-1.177-.674c.034-.078.064-.157.089-.238a4.514 4.514 0 0 1 1.889-2.162l-.801 3.074zm-.584 5.524h-.158.158zm.277 0zm.534-.079h.168-.168zm26.285-22.503zm-.218-.328a.599.599 0 0 1 .198.258.6.6 0 0 0-.228-.258h.03zm-.148-3.272c.289-.132.586-.245.89-.338a7.245 7.245 0 0 0-.92.338h.03zm1.048-.387c.249-.074.504-.124.761-.149a4.117 4.117 0 0 0-.791.149h.03zm1.454-.11c-.203-.03-.41-.03-.613 0 .193-.027.39-.027.583 0h.03zm-2.66.576c-.337.159-.693.337-1.078.565.356-.248.712-.406 1.048-.565h.03z" fill="#117D67" style="mix-blend-mode:multiply" opacity=".7"/></g><path d="M154.316 100.724l-6.418-3.74.05-.03 6.418 3.74-.05.03z" fill="#E67E22"/><path d="M154.366 100.694l-6.418-3.74a76.27 76.27 0 0 1-.129-3.391l6.448 3.739c0 .883 0 2.003.099 3.392z" fill="#E67E22"/><path d="M154.237 97.302l-6.418-3.739-.01-6.437 6.408 3.74.02 6.436zM154.217 90.865l-6.408-3.739 2.977-1.725 6.408 3.739-2.977 1.725zM152.853 105.93l-6.408-3.739-4.549-7.428 6.418 3.739 4.539 7.428z" fill="#E67E22"/><path d="M145.426 95.953l-6.418-3.729 4.361-2.529 6.418 3.739-4.361 2.52z" fill="#E67E22"/><path d="M145.466 110.205l-6.418-3.729-.04-14.252 6.418 3.73.04 14.251z" fill="#E67E22"/><path d="M157.233 89.14v14.251l-4.38 2.539-4.52-7.428h-.079c.109 1.517.168 2.688.168 3.521v6.426l-2.966 1.716V95.913l4.371-2.519 4.529 7.29c-.079-1.389-.129-2.51-.129-3.392v-6.436l3.006-1.716z" fill="#F1C40F"/><path d="M134.697 112.714l-6.408-3.739a1.636 1.636 0 0 0 1.641-.238 4.568 4.568 0 0 0 1.879-2.103l6.408 3.739a4.458 4.458 0 0 1-1.879 2.103 1.633 1.633 0 0 1-1.641.238z" fill="#E67E22"/><path d="M131.522 100.168l6.418 3.739c.082.051.159.111.228.179.519.834.742 1.819.632 2.796a8.527 8.527 0 0 1-.613 3.481l-6.408-3.738a8.396 8.396 0 0 0 .604-3.482 4.335 4.335 0 0 0-.633-2.796.985.985 0 0 0-.228-.179z" fill="#E67E22"/><path d="M131.938 116.423l-6.408-3.739h-.06c-.989-.664-1.562-2.172-1.572-4.582a12.669 12.669 0 0 1 1.533-6.327 11.663 11.663 0 0 1 4.479-4.483c1.919-1.097 3.382-1.355 4.391-.774l6.418 3.739c-.989-.595-2.482-.327-4.391.774a11.745 11.745 0 0 0-4.489 4.483 12.663 12.663 0 0 0-1.523 6.327c0 2.4.534 3.967 1.562 4.582h.06z" fill="#E67E22"/><path d="M140.798 100.267c.989.665 1.543 2.182 1.543 4.592a12.805 12.805 0 0 1-1.513 6.357 11.678 11.678 0 0 1-4.48 4.463c-1.938 1.118-3.428 1.352-4.47.704-.989-.664-1.562-2.181-1.562-4.582a12.665 12.665 0 0 1 1.523-6.327 11.752 11.752 0 0 1 4.489-4.483c1.968-1.13 3.461-1.378 4.47-.724zm-2.581 10.106a8.527 8.527 0 0 0 .613-3.481 4.378 4.378 0 0 0-.633-2.797c-.415-.436-1.038-.406-1.859.07-1.681.992-2.512 2.836-2.512 5.623 0 2.787.851 3.65 2.512 2.688a4.458 4.458 0 0 0 1.879-2.103z" fill="#F1C40F"/><path d="M123.888 122.701l-6.408-3.739-.04-14.252 6.408 3.739.04 14.252z" fill="#E67E22"/><path d="M123.848 108.449l-6.408-3.739 3.363-1.943 6.408 3.739-3.363 1.943z" fill="#E67E22"/><path d="M127.211 106.505l.039 14.242-3.362 1.954-.04-14.252 3.363-1.944z" fill="#F1C40F"/><path d="M114.899 127.898l-6.408-3.739-.03-11.098 6.408 3.739.03 11.098z" fill="#E67E22"/><path d="M111.853 118.545l-6.418-3.738-.01-3.144 6.418 3.739.01 3.143zM111.843 115.402l-6.418-3.739 9.385-5.435 6.408 3.739-9.375 5.435z" fill="#E67E22"/><path d="M121.218 109.967l.01 3.154-3.006 1.735.029 11.108-3.352 1.934-.03-11.098-3.016 1.745-.01-3.143 9.375-5.435z" fill="#F1C40F"/><path d="M104.516 130.179l-6.418-3.739a1.86 1.86 0 0 0 1.85-.288 9.13 9.13 0 0 0 1.591-1.18c.514-.486.989-.992 1.553-1.547l6.418 3.739c-.525.555-.989 1.061-1.553 1.537a9.096 9.096 0 0 1-1.592 1.19c-.791.447-1.404.546-1.849.288zM106.187 118.466l-6.418-3.739a8.073 8.073 0 0 1 3.837-1.21l6.418 3.739a8.073 8.073 0 0 0-3.837 1.21z" fill="#E67E22"/><path d="M101.856 133.938l-6.418-3.739-.11-.07c-1.001-.661-1.506-2.178-1.512-4.552a13.38 13.38 0 0 1 .722-4.314 12.312 12.312 0 0 1 2.067-3.779 11.64 11.64 0 0 1 3.194-2.757l6.418 3.739a11.335 11.335 0 0 0-3.195 2.757 12.078 12.078 0 0 0-2.066 3.779 12.825 12.825 0 0 0-.722 4.314c0 2.36.504 3.868 1.503 4.552l.119.07z" fill="#E67E22"/><path d="M106.187 118.466a8.073 8.073 0 0 1 3.837-1.21l-.989 3.62a9.094 9.094 0 0 0-1.375.179 4.914 4.914 0 0 0-1.473.595 4.583 4.583 0 0 0-1.859 2.201 8.585 8.585 0 0 0-.663 3.491c0 2.748.92 3.591 2.73 2.549a9.096 9.096 0 0 0 1.592-1.19c.514-.476.989-.992 1.552-1.537v3.263a14.836 14.836 0 0 1-3.5 2.816c-1.866 1.085-3.303 1.293-4.312.625-.989-.684-1.493-2.192-1.503-4.552a12.825 12.825 0 0 1 .722-4.314 12.081 12.081 0 0 1 2.067-3.779 11.314 11.314 0 0 1 3.174-2.757z" fill="#F1C40F"/><path d="M90.572 138.411l-6.418-3.739c.327.188.772.119 1.355-.219a3.62 3.62 0 0 0 1.513-1.557c.34-.784.499-1.635.465-2.489l6.408 3.739a5.736 5.736 0 0 1-.455 2.489 3.683 3.683 0 0 1-1.483 1.537c-.613.358-1.068.427-1.385.239zM87.912 142.14l-6.418-3.739c-.85-.496-1.285-1.647-1.285-3.452l6.408 3.739c.01 1.805.405 2.946 1.295 3.452z" fill="#E67E22"/><path d="M93.865 134.166l-6.408-3.739-.03-8.341 6.419 3.739.02 8.341zM93.846 125.825l-6.418-3.739 3.332-1.934 6.418 3.739-3.332 1.934z" fill="#E67E22"/><path d="M86.597 130.02l-6.418-3.739 3.362-1.944 6.418 3.739-3.362 1.944z" fill="#E67E22"/><path d="M86.617 138.688l-6.408-3.739-.03-8.668 6.418 3.739.02 8.668z" fill="#E67E22"/><path d="M97.178 123.891v8.579a9.867 9.867 0 0 1-1.355 5.127 10.688 10.688 0 0 1-3.955 3.828c-1.681.992-2.967 1.23-3.887.754-.92-.476-1.364-1.626-1.374-3.491v-8.668l3.362-1.983v8.35c0 .992.168 1.657.495 1.924.326.268.81.209 1.453-.158a3.685 3.685 0 0 0 1.483-1.538c.335-.785.49-1.635.455-2.489v-8.341l3.323-1.894z" fill="#F1C40F"/><path d="M80.842 147.624l-6.408-3.739-.614-2.321 6.409 3.739.613 2.321zM79.536 142.536l-6.418-3.739-.543-2.013 6.408 3.739.553 2.013z" fill="#E67E22"/><path d="M76.906 144.064l-6.418-3.739 2.63-1.528 6.418 3.739-2.63 1.528zM78.983 140.513l-6.409-3.729a34.906 34.906 0 0 1-.454-1.765c-.178-.774-.307-1.24-.366-1.567l6.418 3.739c.059.327.178.853.365 1.567.188.714.327 1.309.445 1.755z" fill="#E67E22"/><path d="M75.917 136.149l-6.418-3.739 4.46-2.578 6.418 3.739-4.46 2.578z" fill="#E67E22"/><path d="M71.922 152.791l-6.408-3.739 3.985-16.642 6.418 3.739-3.995 16.642z" fill="#E67E22"/><path d="M80.367 133.561l4.134 11.901-3.66 2.122-.612-2.32-4.015 2.33-.613 2.976-3.68 2.132 3.956-16.642 4.49-2.499zm-3.461 10.503l2.63-1.528-.553-1.983c-.12-.447-.277-.992-.445-1.756-.168-.763-.307-1.239-.366-1.567-.053.357-.152.962-.297 1.815-.148.843-.475 2.539-.989 5.058l.02-.039z" fill="#F1C40F"/><path d="M104.763 109.084l-6.408-3.739-2.64-3.659 6.417 3.738 2.631 3.66zM101.272 103.015l-6.408-3.74.623-.366 6.418 3.739-.633.367z" fill="#E67E22"/><path d="M96.911 95.308l6.408 3.74c.208.118.317.386.317.803a3.122 3.122 0 0 1-1.741 2.797l-6.418-3.74a3.06 3.06 0 0 0 1.74-2.796c.01-.417-.088-.684-.306-.803zM99.72 91.708l6.408 3.74c-.811-.477-2.206-.15-4.154.991L95.556 92.7c1.958-1.137 3.346-1.468 4.163-.992z" fill="#E67E22"/><path d="M97.91 98.78l-6.408-3.74 4.054-2.35 6.418 3.74-4.064 2.35zM97.95 113.031l-6.409-3.739-.04-14.251 6.409 3.739.04 14.251z" fill="#E67E22"/><path d="M104.931 102.776l3.629 4.116-3.797 2.202-2.631-3.66-.85.486v5.158l-3.342 1.983-.04-14.281 4.064-2.35c3.356-1.945 5.037-1.515 5.044 1.288a7.947 7.947 0 0 1-2.077 5.058zm-3.026-.128a3.115 3.115 0 0 0 1.74-2.797c0-.992-.573-1.15-1.72-.486l-.663.387v3.263l.633-.367h.01z" fill="#F1C40F"/><path d="M92.105 116.423l-6.418-3.739-.623-2.321 6.418 3.739.623 2.321zM90.78 111.335l-6.408-3.729-.544-2.033 6.418 3.739.534 2.023z" fill="#E67E22"/><path d="M88.15 112.863l-6.408-3.739 2.63-1.518 6.408 3.729-2.63 1.528zM90.246 109.312l-6.418-3.739c-.118-.456-.287-.992-.455-1.755-.168-.764-.296-1.24-.356-1.577l6.408 3.739c.06.327.178.863.356 1.577s.337 1.299.465 1.755z" fill="#E67E22"/><path d="M87.17 104.939l-6.407-3.739 4.45-2.579 6.418 3.739-4.46 2.579z" fill="#E67E22"/><path d="M83.175 121.59l-6.418-3.739 4.005-16.651 6.409 3.739-3.996 16.651z" fill="#E67E22"/><path d="M91.63 102.36l4.124 11.901-3.649 2.122-.623-2.32-4.015 2.33-.623 2.976-3.669 2.132 3.956-16.652 4.5-2.489zm-3.48 10.503l2.63-1.528-.534-1.983c-.129-.456-.287-.992-.465-1.756-.178-.763-.297-1.249-.356-1.576-.05.366-.148.991-.287 1.824-.138.833-.474 2.529-.989 5.058v-.039z" fill="#F1C40F"/><path d="M76.234 121.868l-6.408-3.739c.445.258 1.058.159 1.849-.288a9.532 9.532 0 0 0 1.592-1.18c.514-.486.989-.992 1.543-1.547l6.417 3.739c-.524.555-.989 1.061-1.552 1.537a8.632 8.632 0 0 1-1.553 1.18c-.82.417-1.444.556-1.888.298zM77.905 110.155l-6.418-3.739a8.108 8.108 0 0 1 3.837-1.21l6.418 3.729a8.212 8.212 0 0 0-3.837 1.22z" fill="#E67E22"/><path d="M73.544 125.627l-6.408-3.739-.12-.07c-.988-.684-1.502-2.191-1.502-4.552a13.116 13.116 0 0 1 .712-4.314 12.517 12.517 0 0 1 2.067-3.779 11.612 11.612 0 0 1 3.194-2.757l6.418 3.739a11.326 11.326 0 0 0-3.195 2.757 12.312 12.312 0 0 0-2.066 3.779 13.087 13.087 0 0 0-.722 4.314c0 2.36.514 3.868 1.513 4.552l.109.07z" fill="#E67E22"/><path d="M77.905 110.155a8.212 8.212 0 0 1 3.837-1.22l-.99 3.63a9.089 9.089 0 0 0-1.374.179 5.04 5.04 0 0 0-1.473.595 4.569 4.569 0 0 0-1.85 2.201 8.273 8.273 0 0 0-.662 3.491c0 2.751.906 3.597 2.72 2.539a8.673 8.673 0 0 0 1.591-1.18c.515-.476.99-.992 1.553-1.537v3.263a14.678 14.678 0 0 1-3.52 2.846c-1.866 1.085-3.3 1.293-4.302.625-.989-.684-1.503-2.192-1.513-4.552a13.083 13.083 0 0 1 .722-4.314 12.31 12.31 0 0 1 2.067-3.779 11.325 11.325 0 0 1 3.194-2.787z" fill="#F1C40F"/><path d="M337.617 56.977h2.907V0h-2.907v56.977zM319.411 61.837l9.701-12.894c1.068-1.418 3.076-2.132 5.746-1.795l-9.701 12.893c-2.67-.337-4.668.377-5.746 1.796z" fill="#141C24"/><path d="M348.089 63.245l-9.711 12.893c1.058-1.399 1.197-3.491.168-5.95-2.057-4.96-8.04-9.492-13.37-10.166l9.701-12.893c5.33.674 11.313 5.226 13.38 10.165 1.009 2.46.87 4.552-.168 5.95z" fill="#202C38"/><path d="M325.166 60.041c5.331.675 11.313 5.227 13.37 10.166 2.057 4.939-.583 8.41-5.933 7.746-5.35-.665-11.313-5.227-13.38-10.176s.623-8.4 5.943-7.736z" fill="#2C3E50"/><path d="M336.321 69.979c1.622 3.868-.425 6.575-4.568 6.05a14.466 14.466 0 0 1-6.173-2.714 14.524 14.524 0 0 1-4.28-5.22c-1.622-3.858.425-6.566 4.579-6.05a14.486 14.486 0 0 1 6.165 2.717 14.54 14.54 0 0 1 4.277 5.217z" fill="#F1C40F"/><path style="mix-blend-mode:screen" opacity=".5" d="M334.719 67.311a14.171 14.171 0 0 0-5.933-4.473c-4.134-1.666-7.041-.783-7.832 1.438l-174.43 193.027a53.966 53.966 0 0 0-12.226 22.151 54.073 54.073 0 0 0-.798 25.305c4.015 18.606 18.611 38.679 60.886 44.342 46.596 6.288 75.047-6.407 91.195-19.072a54.4 54.4 0 0 0 20.223-35.356l30.804-220.668c.662-1.606.198-3.996-1.889-6.694z" fill="url(#d)"/><path d="M107.383 0h-2.907v56.977h2.907V0zM125.589 61.837l-9.701-12.894c-1.068-1.418-3.076-2.132-5.755-1.795l9.71 12.893c2.67-.337 4.668.377 5.746 1.796z" fill="#141C24"/><path d="M96.911 63.245l9.711 12.893c-1.058-1.399-1.197-3.491-.168-5.95 2.057-4.96 8.04-9.492 13.37-10.166l-9.711-12.893c-5.32.674-11.303 5.226-13.37 10.165-1.009 2.46-.82 4.552.168 5.95z" fill="#202C38"/><path d="M119.834 60.041c-5.331.675-11.313 5.227-13.37 10.166-2.057 4.939.583 8.41 5.933 7.746 5.35-.665 11.303-5.227 13.37-10.176 2.067-4.949-.613-8.4-5.933-7.736z" fill="#2C3E50"/><path d="M108.679 69.979c-1.622 3.868.425 6.575 4.569 6.05a14.467 14.467 0 0 0 6.172-2.714 14.524 14.524 0 0 0 4.28-5.22c1.622-3.858-.425-6.566-4.578-6.05a14.485 14.485 0 0 0-6.166 2.717 14.54 14.54 0 0 0-4.277 5.217z" fill="#F1C40F"/><path style="mix-blend-mode:screen" opacity=".5" d="M110.281 67.311a14.171 14.171 0 0 1 5.933-4.473c4.134-1.666 7.041-.783 7.832 1.438l174.43 193.027a53.975 53.975 0 0 1 12.253 22.144 54.078 54.078 0 0 1 .82 25.312c-4.014 18.606-18.61 38.679-60.885 44.342-46.597 6.288-75.047-6.407-91.196-19.072a54.41 54.41 0 0 1-20.223-35.356L108.442 74.005c-.712-1.606-.248-3.996 1.839-6.694z" fill="url(#e)"/></g><defs><radialGradient id="c" cx="0" cy="0" r="1" gradientUnits="userSpaceOnUse" gradientTransform="matrix(186.267 0 0 186.809 222.5 304.878)"><stop stop-color="#fff"/><stop offset="1"/></radialGradient><linearGradient id="d" x1="183.043" y1="360.615" x2="335.553" y2="67.871" gradientUnits="userSpaceOnUse"><stop/><stop offset=".09" stop-color="#070600"/><stop offset=".23" stop-color="#1C1702"/><stop offset=".39" stop-color="#3E3304"/><stop offset=".58" stop-color="#6D5907"/><stop offset=".78" stop-color="#AA8A0B"/><stop offset="1" stop-color="#F1C40F"/></linearGradient><linearGradient id="e" x1="-37523.5" y1="105069" x2="-89208.8" y2="34596.6" gradientUnits="userSpaceOnUse"><stop/><stop offset=".09" stop-color="#070600"/><stop offset=".23" stop-color="#1C1702"/><stop offset=".39" stop-color="#3E3304"/><stop offset=".58" stop-color="#6D5907"/><stop offset=".78" stop-color="#AA8A0B"/><stop offset="1" stop-color="#F1C40F"/></linearGradient><clipPath id="b"><rect width="445" height="446.294" rx="10" fill="#fff"/></clipPath></defs></svg>