<svg width="30" height="30" viewBox="0 0 30 30" fill="none" xmlns="http://www.w3.org/2000/svg"><g clip-path="url(#a)" fill="#fff"><path d="M13.124 4.912L8.207.932H0v3.517h6.741l3.995 3.329 2.388-2.866zM28.398 17.535L30 15.788l-6.749-5.522.153-.69a3.253 3.253 0 0 0-1.097-3.217l-1.073-.894a3.259 3.259 0 0 0-3.82-.26l-.34.212-1.229-1.023-5.88 7.055v3.68l3.259 2.607 6.12 4.986a3.33 3.33 0 0 0 2.108.75c.901 0 1.798-.362 2.453-1.066l1.668-1.798.005.004 1.631-1.78.3.3c.405.405.628.944.628 1.517v8.42h1.759v-8.42a3.878 3.878 0 0 0-1.144-2.76l-.354-.354zm-5.782 3.674a1.588 1.588 0 0 1-2.162.15l-4.943-4.028 3.372-1.284-.401 2.004 1.724.345.395-1.975 3.626 3.053-1.61 1.735z"/></g><defs><clipPath id="a"><path fill="#fff" d="M0 0h30v30H0z"/></clipPath></defs></svg>