<svg width="30" height="30" viewBox="0 0 30 30" fill="none" xmlns="http://www.w3.org/2000/svg"><path d="M24.208 2.305h-1.119V1.172a1.172 1.172 0 1 0-2.343 0v1.133H9.254V1.172a1.172 1.172 0 1 0-2.343 0v1.133H5.792A5.8 5.8 0 0 0 0 8.099v16.106A5.8 5.8 0 0 0 5.792 30h18.416A5.8 5.8 0 0 0 30 24.205V8.1a5.8 5.8 0 0 0-5.792-5.794zM5.792 4.648h1.119v2.286a1.172 1.172 0 1 0 2.343 0V4.648h11.492v2.286a1.172 1.172 0 1 0 2.343 0V4.648h1.119a3.454 3.454 0 0 1 3.45 3.451v1.12H2.342v-1.12a3.454 3.454 0 0 1 3.449-3.45zm18.416 23.008H5.792a3.454 3.454 0 0 1-3.45-3.45V11.562h25.315v12.642a3.454 3.454 0 0 1-3.45 3.451zM10.406 16.172c0 .647-.525 1.172-1.172 1.172H6.931a1.172 1.172 0 0 1 0-2.344h2.303c.647 0 1.171.525 1.171 1.172zm13.835 0c0 .647-.525 1.172-1.171 1.172h-2.304a1.172 1.172 0 0 1 0-2.344h2.304c.646 0 1.17.525 1.17 1.172zm-6.924 0c0 .647-.525 1.172-1.172 1.172h-2.303a1.172 1.172 0 0 1 0-2.344h2.303c.647 0 1.172.525 1.172 1.172zm-6.912 6.914c0 .647-.524 1.172-1.17 1.172H6.93a1.172 1.172 0 0 1 0-2.344h2.303c.647 0 1.171.525 1.171 1.172zm13.836 0c0 .647-.525 1.172-1.171 1.172h-2.304a1.172 1.172 0 0 1 0-2.344h2.304c.646 0 1.17.525 1.17 1.172zm-6.924 0c0 .647-.525 1.172-1.172 1.172h-2.303a1.172 1.172 0 0 1 0-2.344h2.303c.647 0 1.172.525 1.172 1.172z" fill="#fff"/></svg>