<svg width="30" height="30" viewBox="0 0 30 30" fill="none" xmlns="http://www.w3.org/2000/svg"><g clip-path="url(#a)" fill="#fff"><path d="M29.36 8.055l-5.252-5.253a2.156 2.156 0 0 0-2.82-.212L18.45 4.682a.44.44 0 0 0-.05.664l.684.684-3.005 3.004h-2.158L10.916 6.03l.684-.684a.44.44 0 0 0-.05-.664L8.713 2.59a2.156 2.156 0 0 0-2.82.212l-.833.832a.44.44 0 0 0 .622.621l.831-.831a1.282 1.282 0 0 1 1.679-.127l.944.696-7.306 7.305-.696-.944a1.284 1.284 0 0 1 .127-1.678l3.178-3.179a.44.44 0 0 0-.621-.621L.639 8.054a2.158 2.158 0 0 0-.212 2.822l2.093 2.837a.44.44 0 0 0 .664.05l.684-.684.51.51a4.907 4.907 0 0 0-1.709 3.717 4.912 4.912 0 0 0 3.962 4.813 3.759 3.759 0 0 0 2.42 2.832v1.578a1.31 1.31 0 0 0 2.54.439h.63c.18.506.664.87 1.232.87a1.31 1.31 0 0 0 1.232-.87h.63c.18.506.665.87 1.232.87a1.31 1.31 0 0 0 1.233-.87h.629c.18.506.665.87 1.232.87a1.31 1.31 0 0 0 1.309-1.31v-3.453a3.188 3.188 0 0 0 1.785-.873 4.88 4.88 0 0 0 2.45-.842.44.44 0 1 0-.495-.726 4.003 4.003 0 0 1-1.258.57c.14-.316.232-.66.263-1.02a3.138 3.138 0 0 0 1.877-2.878c0-.975-.448-1.878-1.198-2.468l.625-.625a4.027 4.027 0 0 1 1.453 3.093c0 .786-.227 1.547-.657 2.202a.44.44 0 0 0 .734.482 4.877 4.877 0 0 0 .802-2.683c0-1.435-.63-2.79-1.709-3.717l.51-.51.684.683a.44.44 0 0 0 .665-.05l2.092-2.837a2.157 2.157 0 0 0-.212-2.821zm-7.083 4.058a.41.41 0 0 1 .121-.293l1.238-1.237.584.584-1.238 1.237a.41.41 0 0 1-.584 0 .41.41 0 0 1-.12-.291zM21.19 8.136l.39.39-1.238 1.239a.41.41 0 0 1-.584 0 .413.413 0 0 1 0-.584l1.238-1.238.194.193zm-1.485-1.485l.67.67-1.238 1.238a1.293 1.293 0 0 0 .913 2.205c.345 0 .67-.134.914-.378L22.2 9.148l.814.813-1.238 1.238a1.283 1.283 0 0 0-.378.914c0 .345.134.669.378.913s.568.378.913.378c.345 0 .67-.134.913-.378l1.238-1.238.67.67-2.822 2.822-5.806-5.806 2.822-2.823zm-1.85 16.455h.478v2.983h-.477v-2.983zm-3.015-.879l2.476-2.431-.002.113c0 .912.384 1.735.999 2.318H14.84zm-3.172 2.688c.165-.065.324-.14.477-.226v1.4h-.477v-1.174zm3.094-1.809h.477v2.983h-.477v-2.983zm-.721-1.326a3.75 3.75 0 0 0-3.97-4.095l2.45-2.394A2.49 2.49 0 0 0 15 17.599a2.49 2.49 0 0 0 2.479-2.66L20 16.752c-.677.11-1.283.431-1.748.895v-.003l-4.211 4.135zm-7.788-6.315l.673.672.823 2.557c-.257.242-.48.52-.662.826a2.286 2.286 0 0 1-1.78-2.213c0-.738.356-1.419.946-1.842zM15 13.505a1.61 1.61 0 0 1 1.608 1.607A1.61 1.61 0 0 1 15 16.72a1.61 1.61 0 0 1-1.608-1.607A1.61 1.61 0 0 1 15 13.505zm6.866 3.51s-5.312-3.844-5.373-3.89a2.477 2.477 0 0 0-3.172.156l-4.862 4.752-.647-2.011 6.109-6.11h2.159l6.109 6.11-.32.994-.003-.002zM6.364 10.582l1.238 1.238a.41.41 0 0 1 0 .583.41.41 0 0 1-.584 0L5.78 11.167l.584-.584zm-3.44 2.198l-.566-.768L9.85 4.52l.767.566-7.694 7.695zm2.235-.993l1.238 1.238c.244.244.568.378.913.378.345 0 .67-.134.913-.378.244-.244.379-.569.379-.913 0-.345-.135-.67-.379-.914L6.985 9.961l.01-.01.804-.803 1.238 1.238c.244.244.568.378.913.378a1.293 1.293 0 0 0 .913-2.205L9.625 7.321l.67-.67 2.822 2.823-5.806 5.806-2.822-2.822.67-.67zm3.845-3.845l1.238 1.238a.413.413 0 0 1-.584.584L8.42 8.527l.584-.584zm-5.456 9.364c0-1.2.537-2.332 1.453-3.094l.625.625a3.137 3.137 0 0 0-1.198 2.469c0 .788.294 1.543.829 2.125.4.437.91.748 1.47.904-.084.278-.137.57-.155.87a4.033 4.033 0 0 1-3.024-3.9zm3.896 4.116a2.87 2.87 0 0 1 2.868-2.867 2.87 2.87 0 0 1 2.868 2.867 2.87 2.87 0 0 1-2.868 2.868 2.87 2.87 0 0 1-2.868-2.868zm2.915 5.536a.43.43 0 0 1-.43-.43V25.15a3.752 3.752 0 0 0 .86-.012v1.39a.43.43 0 0 1-.43.43zm3.094 0a.43.43 0 0 1-.43-.43V24.01l.86-.844v3.362a.43.43 0 0 1-.43.43zm3.094 0a.43.43 0 0 1-.43-.43v-3.423h.86v3.423a.43.43 0 0 1-.43.43zm3.094 0a.43.43 0 0 1-.43-.43v-3.423h.86v3.423a.43.43 0 0 1-.43.43zm.87-4.732a2.32 2.32 0 0 1-2.319-2.318 2.32 2.32 0 0 1 2.318-2.318 2.32 2.32 0 0 1 2.319 2.318 2.32 2.32 0 0 1-2.319 2.318zm4.182-4.92c0 .794-.41 1.511-1.06 1.919a3.198 3.198 0 0 0-1.003-1.708l.445-1.38.672-.673c.59.423.946 1.104.946 1.841zm2.384-4.526l-7.695-7.695.767-.565 7.493 7.492-.565.768zm1.789-2.427l-.696.944-7.305-7.305.944-.696a1.283 1.283 0 0 1 1.678.126l5.253 5.253c.454.455.507 1.16.126 1.678z"/><path d="M11.638 21.423c0-.73-.595-1.326-1.326-1.326-.731 0-1.326.595-1.326 1.326 0 .732.595 1.327 1.326 1.327.731 0 1.326-.595 1.326-1.327zm-1.773 0a.448.448 0 1 1 .895.002.448.448 0 0 1-.895-.002zM20.51 18.583c-.731 0-1.326.595-1.326 1.326 0 .731.595 1.326 1.326 1.326.731 0 1.326-.595 1.326-1.326 0-.731-.595-1.326-1.326-1.326zm0 1.773a.448.448 0 1 1 .001-.895.448.448 0 0 1 0 .895z"/></g><defs><clipPath id="a"><path fill="#fff" d="M0 0h30v30H0z"/></clipPath></defs></svg>