<svg width="50" height="50" viewBox="0 0 50 50" fill="none" xmlns="http://www.w3.org/2000/svg"><g clip-path="url(#a)" fill="#E35118"><path d="M12.666 24.8l-3.384 3.384-1.06-1.061a.977.977 0 0 0-1.382 1.381l1.752 1.752a.977.977 0 0 0 1.38 0l4.075-4.075a.976.976 0 1 0-1.38-1.38zM18.32 30.528h4.601a.976.976 0 1 0 0-1.953H18.32a.977.977 0 0 0 0 1.953zM12.666 35.451l-3.384 3.384-1.06-1.062a.977.977 0 0 0-1.382 1.381l1.752 1.752a.977.977 0 0 0 1.38 0l4.075-4.074a.976.976 0 1 0-1.38-1.38zM25.99 40.202a.977.977 0 0 0-.977-.976H18.32a.977.977 0 1 0 0 1.953h6.693a.977.977 0 0 0 .976-.977zM18.32 36.896h8.784a.977.977 0 1 0 0-1.953H18.32a.977.977 0 1 0 0 1.953zM12.666 14.156L9.282 17.54l-1.06-1.062A.977.977 0 0 0 6.84 17.86l1.752 1.751a.977.977 0 0 0 1.38 0l4.075-4.074a.976.976 0 1 0-1.38-1.381zM18.32 19.884h4.392a.977.977 0 0 0 0-1.953H18.32a.977.977 0 0 0 0 1.953zM15.45 48.047a.987.987 0 0 0-.691.286.984.984 0 0 0-.286.69c0 .257.104.51.286.69a.987.987 0 0 0 .691.287.98.98 0 0 0 .69-1.667.982.982 0 0 0-.69-.286zM37.795 15.27l-7.031 2.195a.976.976 0 0 0-.686.932v6.26c0 4.734 3.187 8.915 7.75 10.168a.975.975 0 0 0 .517 0 10.568 10.568 0 0 0 7.749-10.167v-6.26a.977.977 0 0 0-.686-.933l-7.031-2.196a.978.978 0 0 0-.582 0zm6.346 3.845v5.543a8.612 8.612 0 0 1-6.055 8.208 8.613 8.613 0 0 1-6.055-8.208v-5.543l6.055-1.89 6.055 1.89z"/><path d="M49.315 14.592L38.4 11.185a.973.973 0 0 0-.313-.053h-.002a.981.981 0 0 0-.313.052l-1.053.33V5.266a2.933 2.933 0 0 0-2.93-2.93h-7.112V.978A.977.977 0 0 0 25.7 0H11.019a.977.977 0 0 0-.977.977v1.36H2.93A2.933 2.933 0 0 0 0 5.268V47.07A2.933 2.933 0 0 0 2.93 50h8.125a.977.977 0 1 0 0-1.953H2.93a.978.978 0 0 1-.977-.977V5.267c0-.538.438-.976.977-.976h7.112v1.023a2.11 2.11 0 0 0 2.108 2.108H24.57a2.11 2.11 0 0 0 2.108-2.108V4.291h7.112c.539 0 .977.438.977.976v6.856l-4.883 1.525H18.32a.976.976 0 1 0 0 1.953h7.852v8.691H18.32a.977.977 0 1 0 0 1.953h7.94a14.485 14.485 0 0 0 8.506 11.622v4.028h-3.223a2.933 2.933 0 0 0-2.93 2.93v3.222h-8.768a.976.976 0 1 0 0 1.953h9.745c.259 0 .507-.103.69-.286l6.153-6.152a.977.977 0 0 0 .286-.69V38.57c.387.11.782.203 1.183.28a.955.955 0 0 0 .368 0C45.067 37.547 50 31.579 50 24.658v-9.134a.977.977 0 0 0-.685-.932zM24.723 5.314c0 .085-.069.155-.154.155H12.15a.155.155 0 0 1-.155-.155v-3.36h12.728v3.36zm6.82 38.534h1.842l-2.819 2.818v-1.842c0-.538.438-.976.977-.976zm16.504-19.19a12.512 12.512 0 0 1-9.961 12.237 12.512 12.512 0 0 1-9.961-12.237v-8.415l7.79-2.432a.97.97 0 0 0 .233-.073l1.938-.605 9.96 3.11v8.415z"/><path d="M37.21 27.977c-.249 0-.499-.096-.69-.286l-2.25-2.25a.977.977 0 0 1 1.381-1.382l1.56 1.56 3.31-3.31a.977.977 0 0 1 1.38 1.381l-4 4a.974.974 0 0 1-.69.287z"/></g><defs><clipPath id="a"><path fill="#fff" d="M0 0h50v50H0z"/></clipPath></defs></svg>