<svg width="50" height="50" viewBox="0 0 50 50" fill="none" xmlns="http://www.w3.org/2000/svg"><path d="M36.816 2.636c-7.269 0-13.183 5.914-13.183 13.184 0 7.269 5.914 13.183 13.183 13.183C44.086 29.003 50 23.09 50 15.82c0-7.27-5.914-13.184-13.184-13.184zm0 23.438c-5.654 0-10.254-4.6-10.254-10.254s4.6-10.254 10.254-10.254 10.254 4.6 10.254 10.254-4.6 10.253-10.254 10.253z" fill="#E35118"/><path d="M33.154 12.89a1.465 1.465 0 1 0 0-2.93 1.465 1.465 0 0 0 0 2.93zM40.478 21.679a1.465 1.465 0 1 0 0-2.93 1.465 1.465 0 0 0 0 2.93zM41.416 10.3a1.465 1.465 0 0 0-2.063.187l-7.324 8.79a1.465 1.465 0 0 0 2.25 1.875l7.325-8.79a1.465 1.465 0 0 0-.188-2.062zM43.052 30.755l-6.375 4.709a7.296 7.296 0 0 1-2.016 1.01 4.354 4.354 0 0 0-.188-3.323 4.36 4.36 0 0 0-2.58-2.278l-12.725-4.21c-3.83-1.278-8.982-.726-12.422 2.34H1.465c-.81 0-1.465.656-1.465 1.465v14.649c0 .809.656 1.464 1.465 1.464h5.86c.808 0 1.464-.656 1.464-1.465v-1.094l11.49 2.61c2.095.48 4.242.732 6.229.732l.271-.001c5.56-.066 10.93-1.836 15.53-5.121l5.851-4.335a4.395 4.395 0 0 0-5.108-7.152zM5.859 43.651H2.93V31.933h2.93V43.65zm40.598-8.128l-5.852 4.335c-4.11 2.935-8.902 4.517-13.86 4.575-1.833.022-3.844-.206-5.815-.657L8.79 41.017v-9.91c3.155-2.74 7.513-2.312 9.455-1.665l12.726 4.21c.38.128.685.397.858.76.173.362.19.769.05 1.145a1.46 1.46 0 0 1-1.835.875l-.005-.001-8.975-2.96a1.465 1.465 0 0 0-.917 2.783l9.03 2.977a10.285 10.285 0 0 0 9.203-1.384l6.374-4.708a1.465 1.465 0 0 1 1.703 2.384z" fill="#E35118"/></svg>