<svg width="50" height="50" viewBox="0 0 50 50" fill="none" xmlns="http://www.w3.org/2000/svg"><g clip-path="url(#a)" fill="#E35118"><path d="M17.5 37.84a.99.99 0 0 1-.69-.286.968.968 0 0 1-.268-.882 1.032 1.032 0 0 1 .145-.35.95.95 0 0 1 .27-.271.999.999 0 0 1 .351-.146.96.96 0 0 1 .565.056c.059.024.115.055.169.09a.95.95 0 0 1 .36.438 1.032 1.032 0 0 1 .075.374.97.97 0 0 1-.076.373.975.975 0 0 1-.901.604z"/><path d="M48.366 34.6c-1.426-1.356-3.664-1.552-5.32-.466a.808.808 0 0 0-.037.026l-4.526 3.27a3.566 3.566 0 0 0-1.049-2.014 3.27 3.27 0 0 0-2.264-.896h-4.476c-.55-.176-2.743-1.376-4.515-2.345l-.478-.262c-2.335-1.276-3.942-1.8-5.547-1.81-1.61-.012-3.224.499-5.566 1.754l-.31.167a.973.973 0 0 0-.622-.223h-3.391v-.01a.977.977 0 0 0-.977-.977H.977a.977.977 0 0 0-.977.977v11.567c0 .54.437.977.977.977h8.311c.54 0 .977-.437.977-.977v-.01h3.392c.16 0 .312-.038.446-.107.606.837 1.437 1.682 2.544 2.236 3.172 1.589 6.144 2.904 10.401 2.904h5.679c1.152 0 4.983-.368 6.472-1.493l8.842-6.609.009-.007a3.752 3.752 0 0 0 1.483-2.776 3.725 3.725 0 0 0-1.167-2.897zM8.312 42.381H1.953v-9.614h6.359v9.614zm4.368-.987h-2.415v-7.641h2.415v7.641zm34.903-4.003a1.779 1.779 0 0 1-.716 1.326l-8.842 6.609c-.805.607-3.782 1.101-5.298 1.101h-5.679c-3.837 0-6.476-1.169-9.527-2.697-1.84-.921-2.702-3.115-2.888-3.65V34.05l.879-.471c3.804-2.04 5.447-2.032 9.252.048l.478.262c4.063 2.222 4.814 2.584 5.365 2.584h4.563c.344 0 .679.131.919.359.32.304.498.756.49 1.24-.007.337-.105.65-.27.878l-3.288.672c-3.5.711-5.204.38-8.546-.978l-3.133-1.274a.977.977 0 0 0-.736 1.81l3.134 1.273c2.356.958 4.086 1.484 6.175 1.484 1.036 0 2.162-.13 3.496-.401l3.579-.732c.065-.012 7.143-5.047 7.143-5.047.905-.582 2.116-.475 2.887.258.39.371.59.86.563 1.377zM35.206 1.563c-8.158 0-14.795 6.639-14.795 14.8a14.83 14.83 0 0 0 7.579 12.924v.001a14.808 14.808 0 0 0 14.431 0A14.832 14.832 0 0 0 50 16.363c0-8.161-6.637-14.8-14.794-14.8zm-5.762 26.286v-7.24c0-.554.45-1.005 1.004-1.005h9.516c.553 0 1.004.451 1.004 1.005v7.24a12.865 12.865 0 0 1-11.524 0zm5.792-10.198h-.06a4.954 4.954 0 0 1-4.917-4.95c0-2.729 2.219-4.949 4.947-4.949a4.954 4.954 0 0 1 4.947 4.95 4.954 4.954 0 0 1-4.917 4.949zm7.685 8.984v-6.026a2.962 2.962 0 0 0-2.91-2.958 6.883 6.883 0 0 0 2.095-4.95c0-3.806-3.096-6.902-6.9-6.902-3.805 0-6.9 3.096-6.9 6.903 0 1.94.803 3.694 2.095 4.95a2.961 2.961 0 0 0-2.91 2.957v6.026a12.876 12.876 0 0 1-5.127-10.272c0-7.084 5.76-12.847 12.841-12.847 7.081 0 12.842 5.763 12.842 12.847 0 4.064-1.928 7.862-5.126 10.272z"/></g><defs><clipPath id="a"><path fill="#fff" d="M0 0h50v50H0z"/></clipPath></defs></svg>