<svg width="14" height="14" viewBox="0 0 14 14" fill="none" xmlns="http://www.w3.org/2000/svg"><g clip-path="url(#a)" fill="#fff"><path d="M12.711 0h-2.485a1.29 1.29 0 0 0-.518 2.47L3.892 8.284a1.288 1.288 0 0 0-.002 1.821l.002.002a1.29 1.29 0 0 0 1.822 0l5.817-5.816A1.29 1.29 0 0 0 14 3.774V1.289C13.999.58 13.426 0 12.71 0z"/><path d="M12.711 6.15a1.29 1.29 0 0 0-1.289 1.29v3.982H2.578V2.578H6.56c.344 0 .668-.135.91-.378A1.29 1.29 0 0 0 6.56 0H2.168A2.17 2.17 0 0 0 0 2.167v9.666A2.17 2.17 0 0 0 2.167 14h9.666c.579 0 1.123-.225 1.532-.635.41-.41.635-.954.635-1.533V7.44c0-.344-.134-.668-.377-.91a1.28 1.28 0 0 0-.912-.378z"/></g><defs><clipPath id="a"><path fill="#fff" d="M0 0h14v14H0z"/></clipPath></defs></svg>