<svg width="50" height="50" viewBox="0 0 50 50" fill="none" xmlns="http://www.w3.org/2000/svg"><path d="M49.99 26.908c-.06-1.385-1.415-2.49-4.035-3.288-2.032-.607-4.612-.976-7.401-1.036v-10.63c-.01-.179-.06-.348-.15-.498-.279-1.205-1.624-2.181-4.005-2.899-2.241-.677-5.17-1.046-8.248-1.046-3.069 0-5.968.37-8.17 1.046-1.803.558-3.964 1.594-3.964 3.378 0 .11.01.219.03.328l.11 4.543C7.68 15.571 1.434 19.825.208 26.29A11.9 11.9 0 0 0 0 28.512c0 6.575 5.35 11.924 11.925 11.924 2.74 0 5.39-.936 7.511-2.67 1.863.439 4.055.678 6.376.698.508 2.76 6.485 4.025 12.054 4.025 3.068 0 5.967-.379 8.17-1.066C47.837 40.865 50 39.819 50 38.035V27.097c0-.06 0-.13-.01-.19zm-13.519-9.444c0 .13-.478.817-2.64 1.474-2.022.608-4.821.966-7.67.966-2.461 0-4.872-.259-6.785-.747-.03-.01-.05-.01-.08-.02a11.493 11.493 0 0 0-3.117-1.763l-.07-2.81c.687.35 1.404.628 2.152.828 2.161.627 4.96.966 7.9.966 3.068 0 6.007-.369 8.248-1.046.747-.22 1.475-.508 2.162-.867v2.61c-.11.14-.1.27-.1.409zM18.58 10.48c2.013-.617 4.703-.966 7.572-.966 2.849 0 5.648.349 7.67.966 2.162.658 2.64 1.335 2.64 1.465 0 .14-.488.826-2.65 1.474-2.022.608-4.811.956-7.66.956-2.75 0-5.36-.318-7.343-.896-2.141-.618-2.74-1.295-2.789-1.514 0-.02-.01-.02-.01-.02.01-.19.468-.827 2.57-1.465zm.03 25.384c-4.054 3.686-10.34 3.397-14.026-.658-3.686-4.054-3.398-10.34.657-14.027a9.921 9.921 0 0 1 6.685-2.58c.996 0 1.982.15 2.938.439a9.97 9.97 0 0 1 6.795 7.481c.13.658.199 1.335.199 2.003a9.87 9.87 0 0 1-3.248 7.342zm2.53.219a12.03 12.03 0 0 0 1.913-3.278c.847.07 1.724.12 2.64.13v.18l.06 3.376a31.122 31.122 0 0 1-4.612-.408zm2.66-8.747c.578.04 1.186.06 1.804.07l.06 3.527c-.698-.01-1.385-.04-2.043-.09.15-.767.23-1.554.23-2.331 0-.389-.02-.777-.05-1.176zm2.451-1.913h-.1c-.956 0-1.882-.04-2.739-.1a11.81 11.81 0 0 0-1.783-3.705c1.494.19 2.998.289 4.513.289 3.078 0 6.017-.369 8.258-1.046.747-.22 1.465-.508 2.152-.857v2.61c-4.274.12-8.667 1.016-10.3 2.81zm1.315 1.584c0-.01 0-.02.01-.04.09-.268.797-.926 2.86-1.504 1.932-.548 4.452-.847 7.102-.847h.17c2.849 0 5.638.33 7.67.947 2.122.638 2.62 1.295 2.63 1.444v.01c-.01.15-.508.837-2.72 1.495-2.041.607-4.731.936-7.57.936-2.75 0-5.36-.319-7.342-.887-2.142-.617-2.73-1.305-2.79-1.514l-.02-.04zM45.457 39.53c-2.012.627-4.712.976-7.58.976-2.88 0-5.57-.339-7.562-.946-2.102-.648-2.54-1.315-2.54-1.465v-.02l-.05-2.889c.797.389 1.623.688 2.48.907 2.092.548 4.752.857 7.482.857 3.078 0 5.997-.369 8.229-1.046.727-.22 1.424-.509 2.092-.847v2.988h.01c0 .14-.459.827-2.56 1.485zm2.57-7.332h-.01c0 .1-.06.219-.06.328 0 .14-.468.817-2.62 1.475-2.042.617-4.761.956-7.64.956-5.52 0-9.235-1.245-10.012-2.211l-.01-.837-.04-2.291c.697.348 1.425.627 2.172.836 2.162.628 4.96.967 7.9.967 3.028 0 5.917-.359 8.139-1.017.757-.209 1.484-.498 2.182-.856v2.65z" fill="#E35118"/><path d="M15.55 29.926a3.766 3.766 0 0 0-3.625-2.74 1.769 1.769 0 0 1-1.774-1.763 1.777 1.777 0 0 1 1.774-1.773c.976 0 1.773.797 1.773 1.773a1 1 0 0 0 .996.997 1 1 0 0 0 .996-.997 3.766 3.766 0 0 0-2.74-3.626v-.448a1 1 0 0 0-.995-.996 1 1 0 0 0-.997.996v.428a3.762 3.762 0 0 0-2.66 4.603 3.752 3.752 0 0 0 3.627 2.79 1.769 1.769 0 1 1-1.764 1.772 1 1 0 0 0-.996-.996 1 1 0 0 0-.996.996 3.784 3.784 0 0 0 2.79 3.637v.866a1 1 0 0 0 .996.996 1 1 0 0 0 .996-.996v-.876a3.758 3.758 0 0 0 2.6-4.643z" fill="#E35118"/></svg>