<svg width="30" height="30" viewBox="0 0 30 30" fill="none" xmlns="http://www.w3.org/2000/svg"><path d="M.975 20.441a.468.468 0 0 0 .368.421l1.634.353c.058.278.13.553.22.82L1.96 23.157a.469.469 0 0 0-.108.55c.226.474.477.914.748 1.305.117.17.332.242.529.18l1.588-.512c.19.213.391.415.604.604l-.511 1.588a.469.469 0 0 0 .18.53c.39.27.83.521 1.305.747a.47.47 0 0 0 .549-.108l1.12-1.236c.269.088.543.161.822.219l.352 1.634a.47.47 0 0 0 .42.368c.25.02.5.037.755.037.254 0 .504-.017.753-.037a.468.468 0 0 0 .421-.368l.353-1.634c.278-.058.553-.13.821-.22l1.12 1.237c.14.153.363.198.55.108a9.426 9.426 0 0 0 1.305-.748.469.469 0 0 0 .18-.529l-.512-1.588c.213-.19.415-.392.605-.604l1.588.512a.468.468 0 0 0 .529-.18c.27-.39.522-.83.748-1.305a.468.468 0 0 0-.108-.55l-1.237-1.12c.088-.268.162-.543.22-.821l1.633-.353a.47.47 0 0 0 .369-.42c.019-.25.037-.5.037-.755 0-.254-.018-.504-.038-.753a.468.468 0 0 0-.368-.421l-1.634-.353a7.428 7.428 0 0 0-.22-.822l1.237-1.12a.469.469 0 0 0 .108-.549 9.421 9.421 0 0 0-.748-1.305.468.468 0 0 0-.529-.18l-1.588.512a7.5 7.5 0 0 0-.604-.605l.511-1.588a.469.469 0 0 0-.18-.529c-.39-.27-.83-.522-1.305-.748a.468.468 0 0 0-.549.108l-1.12 1.237a7.536 7.536 0 0 0-.822-.22l-.352-1.633a.47.47 0 0 0-.42-.368c-.5-.04-1.01-.04-1.509 0a.468.468 0 0 0-.42.368l-.353 1.633c-.279.058-.553.131-.821.22l-1.12-1.237a.469.469 0 0 0-.55-.108 9.376 9.376 0 0 0-1.305.748.469.469 0 0 0-.18.53l.512 1.587c-.213.19-.415.392-.605.605l-1.587-.512a.468.468 0 0 0-.53.18c-.27.39-.522.83-.747 1.305a.469.469 0 0 0 .108.55l1.236 1.12a7.548 7.548 0 0 0-.219.821l-1.634.353a.47.47 0 0 0-.368.42c-.02.25-.037.5-.037.754 0 .255.017.505.037.754zm.91-1.086l1.595-.344a.469.469 0 0 0 .363-.383c.07-.433.184-.857.337-1.262a.468.468 0 0 0-.123-.513l-1.205-1.091c.105-.201.215-.394.328-.576l1.545.497a.47.47 0 0 0 .507-.149c.277-.338.589-.65.927-.927.15-.122.209-.323.15-.507l-.498-1.545c.182-.114.374-.223.576-.328l1.091 1.205a.47.47 0 0 0 .514.124 6.5 6.5 0 0 1 1.26-.337.469.469 0 0 0 .384-.364l.344-1.595a6.2 6.2 0 0 1 .665 0l.344 1.595c.041.188.193.333.383.364.433.07.857.183 1.262.337.179.068.383.02.513-.124l1.091-1.204c.201.105.394.214.576.328l-.497 1.545a.47.47 0 0 0 .149.507c.338.276.65.588.927.927.122.15.323.209.506.149l1.546-.498c.113.182.223.375.328.576l-1.205 1.09a.469.469 0 0 0-.124.515c.154.404.267.828.337 1.26a.47.47 0 0 0 .364.384l1.595.344a6.022 6.022 0 0 1 0 .665l-1.595.344a.469.469 0 0 0-.363.383c-.07.433-.184.857-.337 1.262a.468.468 0 0 0 .123.513l1.205 1.091a8.78 8.78 0 0 1-.328.576l-1.546-.497a.467.467 0 0 0-.506.149c-.276.337-.588.65-.927.927a.469.469 0 0 0-.15.506l.498 1.545a8.4 8.4 0 0 1-.575.328l-1.091-1.205a.47.47 0 0 0-.514-.123 6.499 6.499 0 0 1-1.261.337.469.469 0 0 0-.383.364l-.344 1.594c-.221.012-.446.012-.665 0l-.345-1.595a.469.469 0 0 0-.383-.363 6.532 6.532 0 0 1-1.261-.337.468.468 0 0 0-.514.123l-1.09 1.205a8.794 8.794 0 0 1-.577-.328l.498-1.546a.47.47 0 0 0-.15-.506 6.59 6.59 0 0 1-.926-.927.468.468 0 0 0-.507-.15l-1.545.498a8.325 8.325 0 0 1-.328-.576l1.204-1.091a.469.469 0 0 0 .124-.514 6.504 6.504 0 0 1-.337-1.26.469.469 0 0 0-.364-.384l-1.595-.343a6 6 0 0 1 0-.665zM25.415 7.61a.468.468 0 0 0 .325-.393c.028-.237.041-.451.041-.654a5.62 5.62 0 0 0-.04-.655.468.468 0 0 0-.325-.393l-1.3-.408a4.043 4.043 0 0 0-.13-.314l.63-1.207a.47.47 0 0 0-.047-.507 5.674 5.674 0 0 0-.928-.928.47.47 0 0 0-.508-.048l-1.208.63a4.263 4.263 0 0 0-.313-.13l-.408-1.299A.468.468 0 0 0 20.81.98a5.185 5.185 0 0 0-1.31 0 .468.468 0 0 0-.393.325l-.408 1.3a4.07 4.07 0 0 0-.313.13l-1.207-.63a.47.47 0 0 0-.508.047 5.675 5.675 0 0 0-.928.928.469.469 0 0 0-.048.507l.63 1.207c-.047.103-.09.207-.13.314l-1.3.408a.468.468 0 0 0-.324.393 5.62 5.62 0 0 0-.04.655c0 .203.012.417.04.654a.468.468 0 0 0 .325.393l1.3.408c.039.107.082.211.13.314l-.63 1.207a.47.47 0 0 0 .047.507c.271.343.584.656.928.928a.47.47 0 0 0 .507.048l1.207-.63c.102.048.207.09.313.13l.409 1.3c.055.176.21.303.393.324.238.028.452.041.655.041.204 0 .418-.013.655-.04a.468.468 0 0 0 .393-.325l.408-1.3c.107-.039.211-.082.313-.13l1.207.63a.47.47 0 0 0 .508-.047c.343-.272.655-.584.928-.928a.469.469 0 0 0 .048-.507l-.63-1.207c.047-.103.09-.207.13-.314l1.3-.409zm-1.81-.414a.47.47 0 0 0-.308.312 3.297 3.297 0 0 1-.25.607.467.467 0 0 0-.003.439l.595 1.14c-.111.123-.229.24-.351.351l-1.14-.595a.469.469 0 0 0-.44.003c-.19.102-.394.187-.606.25a.47.47 0 0 0-.313.309l-.386 1.23c-.17.01-.322.01-.494 0l-.386-1.23a.47.47 0 0 0-.313-.308 3.26 3.26 0 0 1-.606-.25.468.468 0 0 0-.439-.004l-1.14.595a4.79 4.79 0 0 1-.352-.351l.595-1.14a.469.469 0 0 0-.003-.439 3.297 3.297 0 0 1-.25-.607.47.47 0 0 0-.308-.312l-1.23-.386a3.779 3.779 0 0 1 0-.495l1.23-.386a.47.47 0 0 0 .308-.312c.064-.213.148-.417.25-.607a.468.468 0 0 0 .003-.439l-.595-1.14c.112-.123.23-.24.352-.351l1.14.595a.47.47 0 0 0 .439-.003c.19-.102.394-.187.606-.25a.47.47 0 0 0 .313-.309l.386-1.23c.171-.01.323-.01.494 0l.387 1.23a.47.47 0 0 0 .312.308c.212.064.416.149.606.25a.468.468 0 0 0 .44.004l1.14-.595c.123.11.24.228.351.351l-.595 1.14a.469.469 0 0 0 .003.439c.102.19.187.395.25.607a.47.47 0 0 0 .309.312l1.23.386a3.781 3.781 0 0 1 0 .495l-1.23.386zM28.717 16.39l-.806-.287a3.792 3.792 0 0 0-.158-.383l.366-.77a.467.467 0 0 0-.054-.49c-.234-.3-.505-.571-.806-.806a.469.469 0 0 0-.49-.055l-.771.366a3.713 3.713 0 0 0-.383-.157l-.286-.806a.47.47 0 0 0-.385-.308c-.418-.05-.72-.05-1.138 0a.468.468 0 0 0-.385.308l-.286.806c-.131.046-.26.098-.383.158l-.771-.366a.47.47 0 0 0-.49.054c-.3.235-.57.505-.806.806a.47.47 0 0 0-.054.49l.366.771a3.759 3.759 0 0 0-.158.383l-.805.286a.47.47 0 0 0-.308.386 4.59 4.59 0 0 0-.038.568c0 .174.012.36.037.568.021.177.14.326.308.386l.806.286c.046.13.098.258.158.382l-.366.771a.467.467 0 0 0 .054.49c.234.3.505.57.806.806.14.11.33.13.49.054l.771-.366c.124.06.252.113.383.158l.286.805a.47.47 0 0 0 .385.309c.209.026.395.038.569.038.174 0 .36-.012.569-.037a.468.468 0 0 0 .385-.309l.286-.805c.13-.046.259-.099.383-.158l.77.366c.16.076.351.056.49-.054.3-.235.571-.506.806-.806a.47.47 0 0 0 .055-.49l-.366-.772c.059-.123.112-.251.157-.382l.806-.287a.47.47 0 0 0 .308-.385c.026-.208.038-.394.038-.568 0-.175-.012-.36-.037-.569a.469.469 0 0 0-.308-.386zm-.597 1.125l-.743.264a.469.469 0 0 0-.294.316c-.062.223-.15.435-.26.631a.47.47 0 0 0-.016.432l.336.71c-.077.085-.159.166-.244.244l-.709-.337a.47.47 0 0 0-.432.016c-.197.111-.409.198-.63.26a.47.47 0 0 0-.317.295l-.264.742a3.202 3.202 0 0 1-.343 0l-.264-.742a.469.469 0 0 0-.316-.295 2.788 2.788 0 0 1-.631-.26.473.473 0 0 0-.432-.016l-.71.337a3.75 3.75 0 0 1-.243-.245l.336-.709a.469.469 0 0 0-.015-.432 2.788 2.788 0 0 1-.26-.63.47.47 0 0 0-.295-.317l-.743-.264a2.62 2.62 0 0 1-.001-.343l.743-.264a.467.467 0 0 0 .294-.316c.062-.223.15-.435.26-.632a.47.47 0 0 0 .016-.431l-.336-.71c.077-.085.159-.167.244-.244l.709.337c.138.065.3.06.432-.016.197-.111.409-.199.63-.26a.47.47 0 0 0 .317-.295l.264-.743c.114-.006.23-.006.343 0l.264.743c.05.144.169.254.316.295.223.062.435.15.631.26a.467.467 0 0 0 .432.016l.71-.337c.085.078.166.16.243.244l-.336.71c-.066.137-.06.299.015.431.112.197.2.41.26.631a.47.47 0 0 0 .295.317l.743.264a2.645 2.645 0 0 1 .001.343z" fill="#fff"/><path d="M10.313 24.844a5.162 5.162 0 0 0 5.156-5.157 5.162 5.162 0 0 0-5.156-5.156 5.162 5.162 0 0 0-5.157 5.156 5.162 5.162 0 0 0 5.157 5.157zm0-9.375a4.224 4.224 0 0 1 4.218 4.219 4.224 4.224 0 0 1-4.219 4.218 4.224 4.224 0 0 1-4.218-4.218 4.224 4.224 0 0 1 4.218-4.22zM.948 11.887l.72.6a11.227 11.227 0 0 1 8.645-4.05c.238 0 .476.014.715.03l-.578.577.663.663L12.519 8.3a.468.468 0 0 0 0-.663l-1.406-1.406-.663.663.637.637c-.258-.016-.516-.03-.774-.03-3.627 0-7.04 1.598-9.365 4.386zM20.156 4.219a2.346 2.346 0 0 0-2.343 2.343 2.346 2.346 0 0 0 2.343 2.344A2.346 2.346 0 0 0 22.5 6.562a2.346 2.346 0 0 0-2.344-2.343zm0 3.75c-.775 0-1.406-.631-1.406-1.407 0-.775.63-1.406 1.406-1.406.776 0 1.407.631 1.407 1.407 0 .775-.631 1.406-1.407 1.406zM24.375 15.469c-1.034 0-1.875.84-1.875 1.875 0 1.034.84 1.875 1.875 1.875a1.877 1.877 0 0 0 1.875-1.875c0-1.034-.84-1.875-1.875-1.875zm0 2.812a.938.938 0 0 1 0-1.875.939.939 0 0 1 0 1.875zM28.686 2.353l-2.344-.469a.468.468 0 0 0-.552.368l-.468 2.344.919.184.252-1.262c.455.945.695 1.987.695 3.045a6.956 6.956 0 0 1-1.543 4.394l.732.586a7.978 7.978 0 0 0 .925-8.511l1.2.24.184-.919z" fill="#fff"/></svg>