<svg width="50" height="50" viewBox="0 0 50 50" fill="none" xmlns="http://www.w3.org/2000/svg"><g clip-path="url(#a)"><path d="M49.588 24.978l-8.404-8.682a1.464 1.464 0 0 0-1.052-.446h-5.37V9.53c0-.81-.656-1.465-1.465-1.465H6.09c-.81 0-1.465.656-1.465 1.465v4.396H3.516a1.465 1.465 0 1 0 0 2.93h1.109v2.93h-3.16a1.465 1.465 0 0 0 0 2.93h3.16V36.17c0 .809.656 1.465 1.465 1.465h3.118a6.02 6.02 0 0 0 1.516 2.529 6.01 6.01 0 0 0 4.279 1.772 6.01 6.01 0 0 0 4.278-1.772 6.013 6.013 0 0 0 1.507-2.513h13.989c.279.92.78 1.787 1.507 2.513a6.01 6.01 0 0 0 4.278 1.772 6.01 6.01 0 0 0 4.278-1.772 6.012 6.012 0 0 0 1.507-2.513h2.188c.81 0 1.465-.656 1.465-1.465V25.997c0-.38-.148-.745-.412-1.019zm-4.51-.446H34.722V18.78h4.79l5.568 5.753zM7.556 22.716h7.624a1.465 1.465 0 1 0 0-2.93H7.555v-2.93h8.698a1.465 1.465 0 0 0 0-2.93H7.555v-2.931h24.278L31.79 34.72H20.938a6.016 6.016 0 0 0-1.657-3.114 6.01 6.01 0 0 0-4.278-1.772 6.01 6.01 0 0 0-4.279 1.772 6.007 6.007 0 0 0-1.657 3.098H7.555V22.716zm9.654 15.375a3.1 3.1 0 0 1-2.206.914 3.1 3.1 0 0 1-2.207-.914 3.1 3.1 0 0 1-.914-2.206 3.1 3.1 0 0 1 .914-2.207 3.1 3.1 0 0 1 2.207-.914 3.1 3.1 0 0 1 2.206.913 3.125 3.125 0 0 1 0 4.414zm25.56 0a3.1 3.1 0 0 1-2.207.914 3.1 3.1 0 0 1-2.207-.914 3.125 3.125 0 0 1 0-4.413 3.1 3.1 0 0 1 2.207-.914 3.1 3.1 0 0 1 2.207.914 3.1 3.1 0 0 1 .914 2.207 3.1 3.1 0 0 1-.914 2.206zm3.728-3.37a6.015 6.015 0 0 0-1.657-3.115 6.01 6.01 0 0 0-4.278-1.772 6.01 6.01 0 0 0-4.278 1.772 6.01 6.01 0 0 0-1.563 2.712v-6.856h12.35v7.258h-.574z" fill="#E35118"/></g><defs><clipPath id="a"><path fill="#fff" d="M0 0h50v50H0z"/></clipPath></defs></svg>