<svg width="50" height="50" viewBox="0 0 50 50" fill="none" xmlns="http://www.w3.org/2000/svg"><g clip-path="url(#a)" fill="#E35118"><path d="M49.473 10.195L39.708.429A1.465 1.465 0 0 0 38.672 0H16.211a4.4 4.4 0 0 0-4.395 4.395v19.32C5.234 24.445.098 30.042.098 36.816.098 44.086 6.012 50 13.28 50h32.227a4.4 4.4 0 0 0 4.394-4.395V11.231c0-.389-.154-.761-.429-1.036zM40.137 5l3.182 3.183 1.582 1.582h-4.764V5zM3.027 36.816c0-5.654 4.6-10.254 10.254-10.254s10.254 4.6 10.254 10.254-4.6 10.254-10.254 10.254-10.254-4.6-10.254-10.254zm42.48 10.254h-23.95a13.178 13.178 0 0 0 4.826-8.789h15.219a1.465 1.465 0 0 0 0-2.93H26.383a13.103 13.103 0 0 0-2.145-5.859h17.364a1.465 1.465 0 0 0 0-2.93H21.558a13.123 13.123 0 0 0-6.812-2.847V4.395c0-.808.657-1.465 1.465-1.465h20.996v8.3c0 .81.656 1.465 1.465 1.465h8.3v32.91c0 .808-.657 1.465-1.464 1.465z"/><path d="M41.602 17.773H20.117a1.465 1.465 0 0 0 0 2.93h21.485a1.465 1.465 0 0 0 0-2.93zM19.102 33.144a1.465 1.465 0 0 0-2.071 0l-5.8 5.8-1.894-1.894a1.465 1.465 0 0 0-2.072 2.072l2.93 2.93a1.46 1.46 0 0 0 2.071 0l6.836-6.837c.572-.572.572-1.5 0-2.071z"/></g><defs><clipPath id="a"><path fill="#fff" d="M0 0h50v50H0z"/></clipPath></defs></svg>