<svg width="20" height="20" viewBox="0 0 20 20" fill="none" xmlns="http://www.w3.org/2000/svg"><path d="M1.11 6.08h11.195V3.858H1.111a1.11 1.11 0 0 0 0 2.222zM1.11 10.538h11.195V8.316H1.111a1.11 1.11 0 0 0 0 2.222zM1.11 12.775a1.11 1.11 0 1 0 0 2.221h7.778a2.744 2.744 0 0 1 .234-2.221H1.111z" fill="#fff"/><path d="M19.588 13.154a1.405 1.405 0 0 0-1.986 0l-1.154 1.154V2.3a1.405 1.405 0 0 0-2.81 0v12.007l-1.153-1.154a1.405 1.405 0 1 0-1.987 1.987l3.552 3.552c.547.547 1.438.55 1.987 0l3.551-3.552a1.405 1.405 0 0 0 0-1.987z" fill="#fff"/></svg>