<svg width="30" height="30" viewBox="0 0 30 30" fill="none" xmlns="http://www.w3.org/2000/svg"><path d="M30 10.828c0 .899-.14 1.79-.423 2.65-1.39 6.25-13.407 13.862-13.917 14.181a.648.648 0 0 1-.349.1.649.649 0 0 1-.35-.1c-.243-.152-6.006-3.794-10.094-8.11a.655.655 0 1 1 .954-.898c3.412 3.603 8.173 6.813 9.49 7.675 1.989-1.301 11.84-7.975 13.004-13.194.253-.79.374-1.542.374-2.303a7.293 7.293 0 0 0-3.763-6.375 7.318 7.318 0 0 0-3.51-.902 7.253 7.253 0 0 0-5.602 2.633.659.659 0 0 1-.504.237.65.65 0 0 1-.504-.237A7.272 7.272 0 0 0 9.2 3.552a7.327 7.327 0 0 0-3.513.902 7.29 7.29 0 0 0-3.761 6.374c0 .759.121 1.512.36 2.24.153.682.458 1.38.871 2.11h4.39l1.404-2.352a.652.652 0 0 1 .55-.319c.203-.026.439.108.563.3l2.298 3.54 2.561-6.922a.655.655 0 0 1 .614-.43h.002c.273 0 .519.17.614.428l2.144 5.754h3.797a.656.656 0 0 1 0 1.311H17.84a.659.659 0 0 1-.616-.425l-1.683-4.526-2.4 6.493a.651.651 0 0 1-.615.428.66.66 0 0 1-.55-.3l-2.438-3.754-1.056 1.767a.657.657 0 0 1-.562.32H.656a.656.656 0 0 1 0-1.31h1.01c-.298-.613-.52-1.205-.644-1.765a8.31 8.31 0 0 1-.407-2.587 8.608 8.608 0 0 1 4.439-7.523A8.638 8.638 0 0 1 9.2 2.242a8.57 8.57 0 0 1 6.108 2.549 8.562 8.562 0 0 1 6.106-2.55 8.63 8.63 0 0 1 4.146 1.065A8.595 8.595 0 0 1 30 10.828z" fill="#fff"/></svg>