<svg width="65" height="65" viewBox="0 0 65 65" fill="none" xmlns="http://www.w3.org/2000/svg"><circle cx="32.5" cy="32.5" r="32.5" fill="#fff"/><g clip-path="url(#a)" fill="#E35118"><path d="M19.037 42.299a6.807 6.807 0 0 1-3.347-.88 1.055 1.055 0 0 1-.421-1.478c1.057-1.69 1.44-3.755.955-5.698-.502-2.014-1.228-3.71-1.223-5.842.018-7.48 6.244-13.544 13.716-13.398 7.218.145 13.166 6.212 13.166 13.431 0 9.428-9.881 16.048-18.604 12.407a6.904 6.904 0 0 1-4.242 1.458zm-1.42-2.302a4.82 4.82 0 0 0 4.758-1.123 1.04 1.04 0 0 1 1.17-.19c7.469 3.57 16.259-2.026 16.258-10.25 0-6.136-4.992-11.23-11.127-11.353-6.324-.125-11.58 4.996-11.596 11.325-.004 2.025.786 3.644 1.217 5.562a9.278 9.278 0 0 1-.68 6.029z"/><path d="M45.963 50a6.903 6.903 0 0 1-4.24-1.457c-4.64 1.936-10.158 1.054-13.962-2.23a1.04 1.04 0 0 1 1.359-1.574c3.373 2.913 8.314 3.569 12.335 1.646a1.04 1.04 0 0 1 1.17.19 4.82 4.82 0 0 0 4.76 1.123 9.239 9.239 0 0 1-.361-7.134c.598-1.41.9-2.91.896-4.456-.006-2.726-.913-5.248-2.622-7.293a1.04 1.04 0 0 1 1.595-1.333c1.996 2.387 3.099 5.449 3.106 8.62a13.346 13.346 0 0 1-1.047 5.242c-.735 2.127-.397 4.404.78 6.299.318.516.112 1.203-.421 1.477a6.81 6.81 0 0 1-3.348.88zM28.44 30.13a1.645 1.645 0 1 0 .002-3.29 1.645 1.645 0 0 0-.001 3.29zM22.38 30.13a1.645 1.645 0 1 0 .001-3.29 1.645 1.645 0 0 0 0 3.29zM34.501 30.13a1.645 1.645 0 1 0 .001-3.29 1.645 1.645 0 0 0 0 3.29z"/></g><defs><clipPath id="a"><path fill="#fff" transform="translate(15 15)" d="M0 0h35v35H0z"/></clipPath></defs></svg>