<svg width="50" height="50" viewBox="0 0 50 50" fill="none" xmlns="http://www.w3.org/2000/svg"><path d="M5.25 40.517c0-2.107.9-4.107 2.472-5.488 3.271-2.874 8.928-6.3 17.302-6.3 3.048 0 5.735.455 8.078 1.171a9.918 9.918 0 0 1 2.097-3.173 29.281 29.281 0 0 0-2.227-.672c3.392-2.465 5.602-6.463 5.602-10.967 0-7.472-6.078-13.55-13.55-13.55-7.471 0-13.55 6.078-13.55 13.55 0 4.504 2.21 8.501 5.602 10.967a28.7 28.7 0 0 0-11.77 6.223 10.963 10.963 0 0 0-3.719 8.239v7.896h35.065v-3.662H5.249v-4.234zm9.887-25.43c0-5.451 4.436-9.887 9.887-9.887 5.453 0 9.888 4.436 9.888 9.888s-4.435 9.888-9.887 9.888c-5.452 0-9.888-4.436-9.888-9.888zm25.268 29.664h3.663v3.662h-3.663v-3.662zm3.8-5.171c-.078.027-.137.124-.137.229v2.195h-3.663V39.81a3.885 3.885 0 0 1 2.643-3.703 2.58 2.58 0 0 0 1.75-2.535 2.57 2.57 0 0 0-2.46-2.46 2.548 2.548 0 0 0-1.88.715 2.542 2.542 0 0 0-.785 1.847H36.01c0-1.708.678-3.301 1.908-4.485a6.18 6.18 0 0 1 4.558-1.736c3.23.123 5.858 2.75 5.98 5.98a6.26 6.26 0 0 1-4.251 6.148z" fill="#E35118"/></svg>