<svg width="50" height="50" viewBox="0 0 50 50" fill="none" xmlns="http://www.w3.org/2000/svg"><path d="M33.887 17.773c-8.885 0-16.114 7.229-16.114 16.114C17.773 42.772 25.002 50 33.887 50 42.772 50 50 42.772 50 33.887s-7.228-16.114-16.113-16.114zm0 14.649a4.4 4.4 0 0 1 4.394 4.394c0 1.908-1.228 3.518-2.93 4.125v3.2h-2.93v-3.2c-1.7-.607-2.929-2.217-2.929-4.125h2.93a1.466 1.466 0 0 0 2.93 0c0-.808-.657-1.464-1.465-1.464a4.4 4.4 0 0 1-4.395-4.395c0-1.907 1.229-3.518 2.93-4.125v-3.2h2.93v3.2c1.7.607 2.93 2.218 2.93 4.125h-2.93a1.466 1.466 0 0 0-2.93 0c0 .808.657 1.465 1.465 1.465zM16.309 17.773c9.035 0 16.113-3.86 16.113-8.789C32.422 4.056 25.344 0 16.309 0 7.273 0 0 4.056 0 8.984s7.273 8.79 16.309 8.79zM0 32.965v2.386c0 4.928 7.273 8.79 16.309 8.79.512 0 1.009-.048 1.513-.072a18.916 18.916 0 0 1-2.455-5.823C8.833 38.066 3.16 36.058 0 32.965zM14.914 35.277c-.033-.461-.07-.921-.07-1.39 0-1.528.2-3.005.541-4.43C8.843 29.28 3.163 27.272 0 24.176v2.387c0 4.667 6.569 8.335 14.914 8.715zM16.309 26.562h.004a19.108 19.108 0 0 1 4.115-6.134 32.69 32.69 0 0 1-4.12.275c-6.954 0-12.995-2.074-16.308-5.316v2.386c0 4.928 7.273 8.79 16.309 8.79z" fill="#E35118"/></svg>