<svg width="50" height="50" viewBox="0 0 50 50" fill="none" xmlns="http://www.w3.org/2000/svg"><g clip-path="url(#a)"><path d="M50 15.907a12.92 12.92 0 0 0-3.81-9.196 12.92 12.92 0 0 0-9.196-3.81c-3.474 0-6.74 1.353-9.198 3.812L25 9.517l-2.799-2.806a12.921 12.921 0 0 0-9.196-3.81 12.92 12.92 0 0 0-9.197 3.81A12.92 12.92 0 0 0 0 15.907a12.92 12.92 0 0 0 3.81 9.197l5.518 5.518a4.854 4.854 0 0 0 .983 5.436 4.83 4.83 0 0 0 3.367 1.415 4.83 4.83 0 0 0 1.416 3.367 4.813 4.813 0 0 0 3.366 1.418 4.83 4.83 0 0 0 1.416 3.365 4.832 4.832 0 0 0 3.427 1.417 4.832 4.832 0 0 0 3.427-1.417c.103-.104.187-.218.253-.34l.399.398a4.832 4.832 0 0 0 3.427 1.418 4.831 4.831 0 0 0 3.427-1.418 4.83 4.83 0 0 0 1.416-3.364 4.813 4.813 0 0 0 3.366-1.418 4.813 4.813 0 0 0 1.418-3.367 4.83 4.83 0 0 0 3.365-1.415 4.852 4.852 0 0 0 0-6.854l-.885-.885 3.275-3.274A12.92 12.92 0 0 0 50 15.907zm-47.07 0A10.01 10.01 0 0 1 5.88 8.782a10.01 10.01 0 0 1 7.125-2.95c2.691 0 5.222 1.047 7.123 2.949l7.933 7.953a1.93 1.93 0 0 1-.001 2.716 1.88 1.88 0 0 1-1.342.56 1.88 1.88 0 0 1-1.34-.558l-1.622-1.633a1.465 1.465 0 0 0-1.037-.433h-.002c-.389 0-.761.155-1.036.43L11.173 28.323l-5.292-5.292a10.01 10.01 0 0 1-2.951-7.125zm21.728 27.644a1.92 1.92 0 0 1-2.71 0 1.92 1.92 0 0 1 0-2.71l.432-.434c.219.398.494.767.823 1.096l1.795 1.795a1.47 1.47 0 0 0-.34.253zm7.506.059a1.92 1.92 0 0 1-2.71 0l-4.179-4.179a1.905 1.905 0 0 1-.561-1.355 1.911 1.911 0 0 1 1.917-1.916c.49 0 .981.187 1.355.56l4.178 4.179a1.92 1.92 0 0 1 0 2.71zm4.782-4.783a1.904 1.904 0 0 1-1.355.562c-.512 0-.993-.2-1.355-.562l-4.179-4.178a1.904 1.904 0 0 1-.561-1.355c0-.512.2-.994.561-1.356a1.904 1.904 0 0 1 1.356-.561c.512 0 .993.2 1.355.561l4.178 4.179c.363.362.562.843.562 1.355s-.2.993-.562 1.355zm4.783-4.782a1.904 1.904 0 0 1-1.355.561c-.512 0-.994-.2-1.356-.561l-4.178-4.179a1.904 1.904 0 0 1-.562-1.355c0-.512.2-.993.562-1.355a1.904 1.904 0 0 1 1.355-.562c.512 0 .994.2 1.356.562l4.178 4.178a1.919 1.919 0 0 1 0 2.71zm-.884-7.738l-1.223-1.223a4.815 4.815 0 0 0-3.427-1.42 4.815 4.815 0 0 0-3.427 1.42c-.9.9-1.402 2.093-1.418 3.365a4.813 4.813 0 0 0-3.364 1.418 4.813 4.813 0 0 0-1.418 3.366 4.83 4.83 0 0 0-3.365 1.416 4.821 4.821 0 0 0-1.221 2.05c-.074.05-.145.108-.21.174l-1.896 1.896a1.904 1.904 0 0 1-1.356.561c-.511 0-.993-.2-1.355-.561a1.92 1.92 0 0 1 0-2.711l.003-.003 4.866-4.866a1.465 1.465 0 1 0-2.072-2.072l-4.868 4.869a1.92 1.92 0 0 1-2.711 0 1.92 1.92 0 0 1 0-2.71c.043-.044.082-.09.12-.138l10.211-10.212.587.59a4.79 4.79 0 0 0 3.418 1.423 4.79 4.79 0 0 0 3.418-1.422 4.867 4.867 0 0 0 0-6.85v-.002l-3.067-3.074 2.8-2.809a10.011 10.011 0 0 1 7.124-2.95 10.01 10.01 0 0 1 7.125 2.95 10.01 10.01 0 0 1 2.951 7.125 10.01 10.01 0 0 1-2.951 7.125l-3.274 3.275z" fill="#E35118"/></g><defs><clipPath id="a"><path fill="#fff" d="M0 0h50v50H0z"/></clipPath></defs></svg>