<svg width="65" height="65" viewBox="0 0 65 65" fill="none" xmlns="http://www.w3.org/2000/svg"><circle cx="32.5" cy="32.5" r="32.5" fill="#E35118"/><g clip-path="url(#a)"><path d="M40.188 50c-6.136 0-12.688-2.255-17.81-7.377C17.262 37.508 15 30.96 15 24.812A9.806 9.806 0 0 1 24.812 15c.42 0 .796.255.952.645l4.393 10.983a1.025 1.025 0 0 1-.571 1.332l-4.826 1.93c.341 5.553 4.798 10.01 10.35 10.35l1.93-4.826c.21-.525.806-.782 1.332-.571l10.983 4.393c.39.156.645.533.645.952A9.806 9.806 0 0 1 40.188 50zM24.13 17.08c-3.927.34-7.078 3.633-7.078 7.732 0 6.18 2.406 11.99 6.777 16.36a22.986 22.986 0 0 0 16.36 6.777c4.098 0 7.392-3.15 7.732-7.078l-9.357-3.743-1.816 4.54c-.156.389-.533.644-.952.644-7.228 0-13.107-5.88-13.107-13.106 0-.42.255-.797.645-.953l4.54-1.816-3.744-9.357z" fill="#fff"/></g><defs><clipPath id="a"><path fill="#fff" transform="translate(15 15)" d="M0 0h35v35H0z"/></clipPath></defs></svg>