<svg width="50" height="50" viewBox="0 0 50 50" fill="none" xmlns="http://www.w3.org/2000/svg"><path d="M24.985 9.963c-5.77 0-10.454 4.695-10.454 10.454 0 5.76 4.685 10.465 10.454 10.465 5.77 0 10.454-4.696 10.454-10.455 0-5.758-4.685-10.464-10.454-10.464zm0 18.413c-4.388 0-7.948-3.57-7.948-7.949 0-4.378 3.57-7.947 7.948-7.947s7.948 3.57 7.948 7.947c0 4.379-3.56 7.949-7.948 7.949z" fill="#E35118"/><path d="M24.985 0c-.235 0-.48 0-.716.01C14.183.358 5.846 8.194 4.885 18.228a20.416 20.416 0 0 0 .266 5.76s.03.235.143.674a19.306 19.306 0 0 0 1.35 3.97c2.077 4.92 6.629 12.5 16.51 20.703a2.913 2.913 0 0 0 3.703 0c9.871-8.193 14.423-15.783 16.49-20.663a19.83 19.83 0 0 0 1.36-4c.061-.245.102-.45.133-.644a20.06 20.06 0 0 0 .368-3.836C45.188 9.063 36.124 0 24.985 0zm17.369 23.599c0 .02-.03.194-.102.511a18.395 18.395 0 0 1-1.207 3.55c-1.974 4.664-6.312 11.876-15.794 19.742a.413.413 0 0 1-.256.092.434.434 0 0 1-.256-.092c-9.482-7.877-13.83-15.088-15.814-19.783a17.62 17.62 0 0 1-1.197-3.52c-.061-.265-.092-.429-.102-.48 0-.02-.01-.04-.01-.061a18.014 18.014 0 0 1-.235-5.084c.849-8.787 8.142-15.65 16.98-15.958 10.035-.347 18.32 7.713 18.32 17.686 0 1.126-.112 2.25-.327 3.397z" fill="#E35118"/></svg>