<svg width="50" height="50" viewBox="0 0 50 50" fill="none" xmlns="http://www.w3.org/2000/svg"><path d="M25 0C11.182 0 0 11.181 0 25c0 13.817 11.181 25 25 25 13.818 0 25-11.181 25-25C50 11.182 38.819 0 25 0zm0 46.512c-11.861 0-21.512-9.65-21.512-21.512S13.138 3.488 25 3.488 46.512 13.138 46.512 25 36.862 46.512 25 46.512z" fill="#E35118"/><path d="M24.26 31.633c-1.382 0-2.5 1.152-2.5 2.534 0 1.35 1.085 2.534 2.5 2.534s2.534-1.185 2.534-2.534a2.556 2.556 0 0 0-2.534-2.534zM24.688 12.448c-4.442 0-6.483 2.633-6.483 4.41 0 1.283 1.086 1.876 1.975 1.876 1.777 0 1.053-2.534 4.41-2.534 1.645 0 2.961.724 2.961 2.237 0 1.777-1.843 2.797-2.929 3.719-.954.822-2.204 2.172-2.204 5.002 0 1.71.46 2.205 1.81 2.205 1.612 0 1.941-.724 1.941-1.35 0-1.71.033-2.698 1.843-4.113.888-.691 3.685-2.929 3.685-6.022 0-3.094-2.797-5.43-7.009-5.43z" fill="#E35118"/></svg>