<svg width="30" height="30" viewBox="0 0 30 30" fill="none" xmlns="http://www.w3.org/2000/svg"><g clip-path="url(#a)" fill="#fff"><path d="M9.545.024a.625.625 0 0 0-.771.43L.649 29.205a.625.625 0 0 0 1.203.34L9.977.795a.625.625 0 0 0-.432-.771zM29.35 29.205L21.227.455a.625.625 0 1 0-1.203.34l8.125 28.75a.625.625 0 0 0 1.203-.34zM15 23.75a.625.625 0 0 0-.625.625v5a.625.625 0 1 0 1.25 0v-5A.625.625 0 0 0 15 23.75zM15 13.75a.625.625 0 0 0-.625.625v5a.625.625 0 1 0 1.25 0v-5A.625.625 0 0 0 15 13.75zM15 5a.625.625 0 0 0-.625.625v3.75a.625.625 0 1 0 1.25 0v-3.75A.625.625 0 0 0 15 5zM15 0a.625.625 0 0 0-.625.625v1.25a.625.625 0 1 0 1.25 0V.625A.625.625 0 0 0 15 0z"/></g><defs><clipPath id="a"><path fill="#fff" d="M0 0h30v30H0z"/></clipPath></defs></svg>