<svg width="30" height="30" viewBox="0 0 30 30" fill="none" xmlns="http://www.w3.org/2000/svg"><g clip-path="url(#a)" fill="#fff"><path d="M5.744 18.59a.438.438 0 0 0 .31-.129l.664-.664a.44.44 0 1 0-.621-.621l-.664.664a.44.44 0 0 0 .31.75zM24.415 18.461a.438.438 0 0 0 .622 0 .44.44 0 0 0 0-.621l-.665-.665a.44.44 0 1 0-.62.622l.663.664z"/><path d="M28.675 13.956c-2.482-1.152-6.216-1.263-6.97-1.273l-3.56-2.266a6.534 6.534 0 0 0-3.514-1.023h-4.185a7.05 7.05 0 0 0-3.137.74L5.08 11.25a6.59 6.59 0 0 1-2.135.647l-1.737.217A1.381 1.381 0 0 0 0 13.48v2.805c0 .82.551 1.552 1.34 1.777l2.077.593a2.793 2.793 0 0 0 2.659 1.95 2.79 2.79 0 0 0 2.421-1.409h13.475a2.79 2.79 0 0 0 2.422 1.41 2.791 2.791 0 0 0 2.788-2.789 2.791 2.791 0 0 0-2.788-2.788 2.791 2.791 0 0 0-2.742 3.288H8.818a2.791 2.791 0 0 0-2.742-3.288c-1.5 0-2.726 1.19-2.785 2.676l-1.709-.488a.974.974 0 0 1-.703-.932V14.97h.5a.44.44 0 0 0 0-.879h-.5v-.61a.5.5 0 0 1 .438-.496l1.737-.217a7.467 7.467 0 0 0 2.419-.733l.2-.1.813.81a2.77 2.77 0 0 0 1.972.816h.906a.44.44 0 1 0 0-.88h-.906c-.077 0-.153-.004-.228-.013l.485-2.145a6.159 6.159 0 0 1 1.731-.25h2.236v2.409h-1.44a.44.44 0 1 0 0 .879h10.334c.041 0 4.193.015 6.729 1.192.148.07.281.164.394.277h-.548a.44.44 0 0 0 0 .88h.962c.005.047.008.095.008.143v1.56c0 .435-.191.705-.5.705a.44.44 0 1 0 0 .88c.39 0 .743-.161.996-.452.25-.288.383-.68.383-1.134v-1.559c0-.9-.52-1.723-1.325-2.097zm-4.281 1.953c1.053 0 1.909.857 1.909 1.91a1.911 1.911 0 0 1-1.91 1.908 1.911 1.911 0 0 1-1.908-1.909c0-1.052.856-1.909 1.909-1.909zm-18.318 0c1.052 0 1.909.857 1.909 1.91a1.911 1.911 0 0 1-1.91 1.908 1.911 1.911 0 0 1-1.908-1.909c0-1.052.856-1.909 1.909-1.909zm1.322-3.548c-.103-.069-.2-.148-.29-.238l-.603-.603 1.197-.6.025-.011-.329 1.452zm6.163-2.088h1.07c1.08 0 2.131.306 3.042.886l2.394 1.523H13.56v-2.41z"/><path d="M10.303 16.44a.44.44 0 1 0 0 .878h9.864a.44.44 0 0 0 0-.879h-9.864z"/></g><defs><clipPath id="a"><path fill="#fff" d="M0 0h30v30H0z"/></clipPath></defs></svg>